<svg preserveAspectRatio="none" width="100%" height="100%" overflow="visible" style="display: block;" viewBox="0 0 48 48" fill="none" xmlns="http://www.w3.org/2000/svg">
<g id="preview-img">
<rect width="48" height="48" fill="#111111"/>
<path id="Vector" d="M24.3823 29.9424L22.8714 29.9405L22.8694 30.7699L22.1144 30.7748L22.1057 31.61H19.9558L19.9529 30.7786L19.1998 30.769L19.1959 29.9434L18.4583 29.9405V26.8171H16.8401L16.8362 25.9422L16 25.9354L16.0048 23.3843L16.8362 23.3804V22.5355L17.6531 22.5345V20.9095L18.4583 20.9076V19.2216L19.2742 19.2197L19.2791 18.2965H20.1655L20.1694 17.3539H21.8853L21.895 16.3901H26.1669V17.353L27.8664 17.3549L27.8683 18.2955H28.7567L28.7577 19.2245L29.5716 19.2216L29.5745 20.9076L30.3759 20.9095V22.5345H31.1735V23.3785L32 23.3823L31.9971 25.9393H31.1715L31.1696 26.8171H29.5494V29.9366L28.7683 29.9415V30.7719H28.0056L27.9998 31.609H25.1373L25.1325 30.7748L24.3814 30.7699L24.3785 29.9415L24.3823 29.9424ZM22.7737 24.0513L22.7776 23.3456L23.4388 23.3485V20.9095H22.7786L22.7737 20.1255H21.3846L21.3826 20.9076L20.7214 20.9114V23.3456L21.3768 23.3485L21.3855 24.0532H22.7737V24.0513ZM26.6415 24.0494L26.6386 23.3533L27.3008 23.3408L27.296 20.9085L26.6396 20.9056L26.6425 20.1265L25.2446 20.1245L25.235 20.9095H24.5834V23.3456L25.235 23.3504L25.2437 24.0552L26.6415 24.0503V24.0494Z" fill="url(#paint0_linear_0_4)"/>
</g>
<defs>
<linearGradient id="paint0_linear_0_4" x1="16" y1="16.3901" x2="32.5757" y2="17.0453" gradientUnits="userSpaceOnUse">
<stop stop-color="#A855F7"/>
<stop offset="1" stop-color="#D6AAFF"/>
</linearGradient>
</defs>
</svg>
