<svg preserveAspectRatio="none" width="100%" height="100%" overflow="visible" style="display: block;" viewBox="0 0 12 12" fill="none" xmlns="http://www.w3.org/2000/svg">
<g id="social_icons" clip-path="url(#clip0_0_104)">
<path id="Vector" d="M6.00293 0.0909687C3.53555 0.0909687 2.81393 0.0935142 2.67366 0.105151C2.16731 0.147241 1.85223 0.226969 1.50897 0.397878C1.24443 0.529241 1.0358 0.681514 0.829901 0.894969C0.454912 1.28424 0.227646 1.76315 0.145376 2.33242C0.105377 2.60879 0.0937412 2.66515 0.0913776 4.07679C0.0904686 4.54733 0.0913776 5.16661 0.0913776 5.99724C0.0913776 8.4627 0.0941048 9.18361 0.105923 9.32361C0.146831 9.81633 0.224101 10.1263 0.387732 10.4654C0.70045 11.1145 1.2977 11.6018 2.00132 11.7836C2.24495 11.8463 2.51403 11.8809 2.85948 11.8972C3.00583 11.9036 4.49761 11.9082 5.99029 11.9082C7.48297 11.9082 8.97565 11.9063 9.11838 11.8991C9.51836 11.8802 9.75063 11.8491 10.0074 11.7827C10.7156 11.6 11.3019 11.12 11.621 10.4618C11.7815 10.1309 11.8628 9.80906 11.8997 9.34206C11.9077 9.24024 11.911 7.61688 11.911 5.9957C11.911 4.37424 11.9074 2.75388 11.8994 2.65206C11.8621 2.17751 11.7808 1.85842 11.6151 1.52115C11.4792 1.24506 11.3283 1.03888 11.1092 0.82806C10.7182 0.454605 10.2401 0.227332 9.67027 0.145151C9.39419 0.105241 9.33919 0.0934233 7.9265 0.0909687H6.00293Z" fill="url(#paint0_radial_0_104)"/>
<path id="Vector_2" d="M6.00293 0.0909687C3.53555 0.0909687 2.81393 0.0935142 2.67366 0.105151C2.16731 0.147241 1.85223 0.226969 1.50897 0.397878C1.24443 0.529241 1.0358 0.681514 0.829901 0.894969C0.454912 1.28424 0.227646 1.76315 0.145376 2.33242C0.105377 2.60879 0.0937412 2.66515 0.0913776 4.07679C0.0904686 4.54733 0.0913776 5.16661 0.0913776 5.99724C0.0913776 8.4627 0.0941048 9.18361 0.105923 9.32361C0.146831 9.81633 0.224101 10.1263 0.387732 10.4654C0.70045 11.1145 1.2977 11.6018 2.00132 11.7836C2.24495 11.8463 2.51403 11.8809 2.85948 11.8972C3.00583 11.9036 4.49761 11.9082 5.99029 11.9082C7.48297 11.9082 8.97565 11.9063 9.11838 11.8991C9.51836 11.8802 9.75063 11.8491 10.0074 11.7827C10.7156 11.6 11.3019 11.12 11.621 10.4618C11.7815 10.1309 11.8628 9.80906 11.8997 9.34206C11.9077 9.24024 11.911 7.61688 11.911 5.9957C11.911 4.37424 11.9074 2.75388 11.8994 2.65206C11.8621 2.17751 11.7808 1.85842 11.6151 1.52115C11.4792 1.24506 11.3283 1.03888 11.1092 0.82806C10.7182 0.454605 10.2401 0.227332 9.67027 0.145151C9.39419 0.105241 9.33919 0.0934233 7.9265 0.0909687H6.00293Z" fill="url(#paint1_radial_0_104)"/>
<path id="Vector_3" d="M6.0002 1.63642C4.81515 1.63642 4.66643 1.64161 4.20099 1.66279C3.73646 1.68406 3.41937 1.75761 3.14193 1.86551C2.85494 1.97697 2.61149 2.12606 2.36895 2.3687C2.12623 2.61124 1.97714 2.8547 1.86533 3.14161C1.75715 3.41915 1.68352 3.73633 1.66261 4.2007C1.64179 4.66615 1.63634 4.81497 1.63634 6.00006C1.63634 7.18515 1.64161 7.33342 1.6627 7.79888C1.68406 8.26342 1.75761 8.58051 1.86542 8.85797C1.97696 9.14497 2.12605 9.38842 2.36868 9.63097C2.61113 9.8737 2.85457 10.0232 3.14138 10.1346C3.41901 10.2425 3.73618 10.3161 4.20062 10.3373C4.66606 10.3585 4.8147 10.3637 5.99966 10.3637C7.18481 10.3637 7.33307 10.3585 7.79851 10.3373C8.26305 10.3161 8.58049 10.2425 8.85812 10.1346C9.14502 10.0232 9.3881 9.8737 9.63055 9.63097C9.87327 9.38842 10.0224 9.14497 10.1342 8.85806C10.2414 8.58051 10.3151 8.26333 10.3369 7.79897C10.3578 7.33351 10.3633 7.18515 10.3633 6.00006C10.3633 4.81497 10.3578 4.66624 10.3369 4.20079C10.3151 3.73624 10.2414 3.41915 10.1342 3.1417C10.0224 2.8547 9.87327 2.61124 9.63055 2.3687C9.38783 2.12597 9.14511 1.97688 8.85785 1.86551C8.57967 1.75761 8.26241 1.68406 7.79788 1.66279C7.33244 1.64161 7.18426 1.63642 5.99884 1.63642H6.0002ZM5.60876 2.42279C5.72494 2.42261 5.85457 2.42279 6.0002 2.42279C7.16526 2.42279 7.30335 2.42697 7.76342 2.44788C8.18887 2.46733 8.41977 2.53842 8.57358 2.59815C8.77721 2.67724 8.92239 2.77179 9.07502 2.92451C9.22774 3.07724 9.32229 3.2227 9.40156 3.42633C9.46128 3.57997 9.53246 3.81088 9.55182 4.23633C9.57273 4.69633 9.57728 4.83451 9.57728 5.99906C9.57728 7.16361 9.57273 7.30179 9.55182 7.76179C9.53237 8.18724 9.46128 8.41815 9.40156 8.57179C9.32247 8.77542 9.22774 8.92042 9.07502 9.07306C8.9223 9.22579 8.7773 9.32033 8.57358 9.39942C8.41995 9.45942 8.18887 9.53033 7.76342 9.54979C7.30344 9.5707 7.16526 9.57524 6.0002 9.57524C4.83506 9.57524 4.69697 9.5707 4.23699 9.54979C3.81154 9.53015 3.58064 9.45906 3.42674 9.39933C3.22311 9.32024 3.07766 9.2257 2.92493 9.07297C2.77221 8.92024 2.67767 8.77515 2.5984 8.57142C2.53867 8.41779 2.46749 8.18688 2.44813 7.76142C2.42722 7.30142 2.42304 7.16324 2.42304 5.99797C2.42304 4.8327 2.42722 4.69524 2.44813 4.23524C2.46758 3.80979 2.53867 3.57888 2.5984 3.42506C2.67749 3.22142 2.77221 3.07597 2.92493 2.92324C3.07766 2.77051 3.22311 2.67597 3.42674 2.5967C3.58055 2.5367 3.81154 2.46579 4.23699 2.44624C4.63952 2.42806 4.79551 2.42261 5.60876 2.4217V2.42279ZM8.32941 3.14733C8.04032 3.14733 7.80579 3.38161 7.80579 3.67079C7.80579 3.95988 8.04032 4.19442 8.32941 4.19442C8.61849 4.19442 8.85303 3.95988 8.85303 3.67079C8.85303 3.3817 8.61849 3.14715 8.32941 3.14715V3.14733ZM6.0002 3.75915C4.7627 3.75915 3.75936 4.76251 3.75936 6.00006C3.75936 7.23761 4.7627 8.24051 6.0002 8.24051C7.23771 8.24051 8.24068 7.23761 8.24068 6.00006C8.24068 4.76251 7.23771 3.75915 6.0002 3.75915ZM6.0002 4.54551C6.80345 4.54551 7.45471 5.1967 7.45471 6.00006C7.45471 6.80333 6.80345 7.45461 6.0002 7.45461C5.19687 7.45461 4.5457 6.80333 4.5457 6.00006C4.5457 5.1967 5.19687 4.54551 6.0002 4.54551Z" fill="var(--fill-0, white)"/>
</g>
<defs>
<radialGradient id="paint0_radial_0_104" cx="0" cy="0" r="1" gradientUnits="userSpaceOnUse" gradientTransform="translate(3.23069 12.8183) rotate(-90) scale(11.7117 10.8954)">
<stop stop-color="#FFDD55"/>
<stop offset="0.1" stop-color="#FFDD55"/>
<stop offset="0.5" stop-color="#FF543E"/>
<stop offset="1" stop-color="#C837AB"/>
</radialGradient>
<radialGradient id="paint1_radial_0_104" cx="0" cy="0" r="1" gradientTransform="matrix(1.0278 5.13335 -21.1645 4.23788 -1.88895 0.942259)" gradientUnits="userSpaceOnUse">
<stop stop-color="#3771C8"/>
<stop offset="0.128" stop-color="#3771C8"/>
<stop offset="1" stop-color="#6600FF" stop-opacity="0"/>
</radialGradient>
<clipPath id="clip0_0_104">
<rect width="12" height="12" fill="white"/>
</clipPath>
</defs>
</svg>
