<svg preserveAspectRatio="none" width="100%" height="100%" overflow="visible" style="display: block;" viewBox="0 0 12 12" fill="none" xmlns="http://www.w3.org/2000/svg">
<g id="social_icons" clip-path="url(#clip0_0_125)">
<path id="Vector" d="M5.99981 12.0001C9.31352 12.0001 11.9998 9.31376 11.9998 6.00005C11.9998 2.68634 9.31352 4.80277e-05 5.99981 4.80277e-05C2.6861 4.80277e-05 -0.000192111 2.68634 -0.000192111 6.00005C-0.000192111 9.31376 2.6861 12.0001 5.99981 12.0001Z" fill="var(--fill-0, #FF4500)"/>
<g id="Group">
<path id="Vector_2" d="M9.38653 7.20249C10.1568 7.20249 10.7812 6.57805 10.7812 5.80777C10.7812 5.03748 10.1568 4.41305 9.38653 4.41305C8.61624 4.41305 7.9918 5.03748 7.9918 5.80777C7.9918 6.57805 8.61624 7.20249 9.38653 7.20249Z" fill="url(#paint0_radial_0_125)"/>
<path id="Vector_3" d="M2.61347 7.20249C3.38376 7.20249 4.0082 6.57805 4.0082 5.80777C4.0082 5.03748 3.38376 4.41305 2.61347 4.41305C1.84319 4.41305 1.21875 5.03748 1.21875 5.80777C1.21875 6.57805 1.84319 7.20249 2.61347 7.20249Z" fill="url(#paint1_radial_0_125)"/>
<path id="Vector_4" d="M6.00464 9.98727C8.20214 9.98727 9.98356 8.65068 9.98356 7.00191C9.98356 5.35314 8.20214 4.01655 6.00464 4.01655C3.80714 4.01655 2.02571 5.35314 2.02571 7.00191C2.02571 8.65068 3.80714 9.98727 6.00464 9.98727Z" fill="url(#paint2_radial_0_125)"/>
<path id="Vector_5" d="M4.82449 6.71272C4.80116 7.2165 4.46531 7.40308 4.07348 7.40308C3.68165 7.40308 3.38312 7.14186 3.40644 6.63808C3.42976 6.1343 3.76562 5.79845 4.15744 5.79845C4.54927 5.79845 4.84781 6.20894 4.82449 6.71272ZM8.5935 6.63808C8.61683 7.14186 8.31829 7.40308 7.92646 7.40308C7.53463 7.40308 7.19878 7.22116 7.17546 6.71272C7.15213 6.20894 7.45067 5.79845 7.8425 5.79845C8.23433 5.79845 8.57018 6.12964 8.5935 6.63808Z" fill="var(--fill-0, #842123)"/>
<path id="Vector_6" d="M7.18013 6.75935C7.20345 7.23048 7.51598 7.40307 7.87982 7.40307C8.24366 7.40307 8.52354 7.14651 8.50488 6.67072C8.48156 6.19959 8.16903 5.88706 7.80519 5.88706C7.44135 5.88706 7.15681 6.28356 7.18013 6.75935Z" fill="url(#paint3_radial_0_125)"/>
<path id="Vector_7" d="M4.82449 6.75935C4.80117 7.23048 4.48864 7.40307 4.1248 7.40307C3.76095 7.40307 3.48108 7.14651 3.5044 6.67072C3.52772 6.19959 3.84025 5.88706 4.20409 5.88706C4.56793 5.88706 4.84781 6.28356 4.82449 6.75935Z" fill="url(#paint4_radial_0_125)"/>
<path id="Vector_8" d="M6.00464 7.73894C5.51019 7.73894 5.03906 7.76226 4.60059 7.80424C4.52596 7.81357 4.47931 7.8882 4.5073 7.95351C4.74986 8.52726 5.32827 8.93308 6.00464 8.93308C6.68101 8.93308 7.25476 8.53192 7.50199 7.95351C7.52997 7.88354 7.48333 7.80891 7.40869 7.80424C6.97022 7.76226 6.49909 7.73894 6.00464 7.73894Z" fill="var(--fill-0, #BBCFDA)"/>
<path id="Vector_9" d="M6.00464 7.85089C5.51019 7.85089 5.03906 7.87421 4.60525 7.92086C4.53061 7.93019 4.48397 8.00482 4.51196 8.07479C4.75452 8.65787 5.33293 9.06836 6.00464 9.06836C6.67634 9.06836 7.25476 8.65787 7.49732 8.07479C7.5253 8.00482 7.47866 7.93019 7.40402 7.92086C6.96555 7.87421 6.49442 7.85089 6.00464 7.85089Z" fill="var(--fill-0, white)"/>
<path id="Vector_10" d="M6.00465 7.79023C5.51953 7.79023 5.05774 7.81355 4.62859 7.85554C4.55396 7.86487 4.50731 7.9395 4.5353 8.0048C4.77786 8.57855 5.34228 8.98438 6.00465 8.98438C6.66703 8.98438 7.23145 8.58322 7.47401 8.0048C7.502 7.93483 7.45535 7.8602 7.38072 7.85554C6.95157 7.81822 6.48978 7.79023 6.00465 7.79023Z" fill="url(#paint5_radial_0_125)"/>
<path id="Vector_11" d="M8.18301 3.6154C8.72917 3.6154 9.17191 3.17265 9.17191 2.6265C9.17191 2.08035 8.72917 1.6376 8.18301 1.6376C7.63686 1.6376 7.19411 2.08035 7.19411 2.6265C7.19411 3.17265 7.63686 3.6154 8.18301 3.6154Z" fill="url(#paint6_radial_0_125)"/>
<path id="Vector_12" d="M5.99067 4.1425C5.87405 4.1425 5.77609 4.09119 5.77609 4.01656C5.77609 3.13028 6.49445 2.41193 7.38073 2.41193C7.49734 2.41193 7.5953 2.50988 7.5953 2.6265C7.5953 2.74311 7.49734 2.84107 7.38073 2.84107C6.73234 2.84107 6.20524 3.36817 6.20524 4.01656C6.20524 4.09585 6.10728 4.1425 5.99067 4.1425Z" fill="url(#paint7_radial_0_125)"/>
<path id="Vector_13" d="M4.56796 6.99258C4.56796 7.1745 4.37205 7.25846 4.13415 7.25846C3.89625 7.25846 3.70034 7.1745 3.70034 6.99258C3.70034 6.81066 3.89625 6.66139 4.13415 6.66139C4.37205 6.66139 4.56796 6.80599 4.56796 6.99258ZM8.30899 6.99258C8.30899 7.1745 8.11307 7.25846 7.87518 7.25846C7.63728 7.25846 7.44137 7.1745 7.44137 6.99258C7.44137 6.81066 7.63728 6.66139 7.87518 6.66139C8.11307 6.66139 8.30899 6.80599 8.30899 6.99258Z" fill="var(--fill-0, #FF6101)"/>
<path id="Vector_14" d="M4.43267 6.49348C4.51768 6.49348 4.5866 6.4183 4.5866 6.32555C4.5866 6.23281 4.51768 6.15763 4.43267 6.15763C4.34765 6.15763 4.27874 6.23281 4.27874 6.32555C4.27874 6.4183 4.34765 6.49348 4.43267 6.49348Z" fill="var(--fill-0, #FFC49C)"/>
<path id="Vector_15" d="M8.11308 6.49348C8.19809 6.49348 8.26701 6.4183 8.26701 6.32555C8.26701 6.23281 8.19809 6.15763 8.11308 6.15763C8.02806 6.15763 7.95914 6.23281 7.95914 6.32555C7.95914 6.4183 8.02806 6.49348 8.11308 6.49348Z" fill="var(--fill-0, #FFC49C)"/>
</g>
</g>
<defs>
<radialGradient id="paint0_radial_0_125" cx="0" cy="0" r="1" gradientUnits="userSpaceOnUse" gradientTransform="translate(9.40574 5.05476) scale(2.79418 2.43748)">
<stop stop-color="#FEFFFF"/>
<stop offset="0.4" stop-color="#FEFFFF"/>
<stop offset="0.51" stop-color="#F9FCFC"/>
<stop offset="0.62" stop-color="#EDF3F5"/>
<stop offset="0.7" stop-color="#DEE9EC"/>
<stop offset="0.72" stop-color="#D8E4E8"/>
<stop offset="0.76" stop-color="#CCD8DF"/>
<stop offset="0.8" stop-color="#C8D5DD"/>
<stop offset="0.83" stop-color="#CCD6DE"/>
<stop offset="0.85" stop-color="#D8DBE2"/>
<stop offset="0.88" stop-color="#EDE3E9"/>
<stop offset="0.9" stop-color="#FFEBEF"/>
<stop offset="1" stop-color="#FFEBEF"/>
</radialGradient>
<radialGradient id="paint1_radial_0_125" cx="0" cy="0" r="1" gradientUnits="userSpaceOnUse" gradientTransform="translate(2.63642 5.05476) scale(2.79418 2.43748)">
<stop stop-color="#FEFFFF"/>
<stop offset="0.4" stop-color="#FEFFFF"/>
<stop offset="0.51" stop-color="#F9FCFC"/>
<stop offset="0.62" stop-color="#EDF3F5"/>
<stop offset="0.7" stop-color="#DEE9EC"/>
<stop offset="0.72" stop-color="#D8E4E8"/>
<stop offset="0.76" stop-color="#CCD8DF"/>
<stop offset="0.8" stop-color="#C8D5DD"/>
<stop offset="0.83" stop-color="#CCD6DE"/>
<stop offset="0.85" stop-color="#D8DBE2"/>
<stop offset="0.88" stop-color="#EDE3E9"/>
<stop offset="0.9" stop-color="#FFEBEF"/>
<stop offset="1" stop-color="#FFEBEF"/>
</radialGradient>
<radialGradient id="paint2_radial_0_125" cx="0" cy="0" r="1" gradientUnits="userSpaceOnUse" gradientTransform="translate(6.10945 4.66382) scale(8.42837 5.91778)">
<stop stop-color="#FEFFFF"/>
<stop offset="0.4" stop-color="#FEFFFF"/>
<stop offset="0.51" stop-color="#F9FCFC"/>
<stop offset="0.62" stop-color="#EDF3F5"/>
<stop offset="0.7" stop-color="#DEE9EC"/>
<stop offset="0.72" stop-color="#D8E4E8"/>
<stop offset="0.76" stop-color="#CCD8DF"/>
<stop offset="0.8" stop-color="#C8D5DD"/>
<stop offset="0.83" stop-color="#CCD6DE"/>
<stop offset="0.85" stop-color="#D8DBE2"/>
<stop offset="0.88" stop-color="#EDE3E9"/>
<stop offset="0.9" stop-color="#FFEBEF"/>
<stop offset="1" stop-color="#FFEBEF"/>
</radialGradient>
<radialGradient id="paint3_radial_0_125" cx="0" cy="0" r="1" gradientUnits="userSpaceOnUse" gradientTransform="translate(7.73895 7.07985) rotate(180) scale(0.70419 1.03381)">
<stop stop-color="#FF6600"/>
<stop offset="0.5" stop-color="#FF4500"/>
<stop offset="0.7" stop-color="#FC4301"/>
<stop offset="0.82" stop-color="#F43F07"/>
<stop offset="0.92" stop-color="#E53812"/>
<stop offset="1" stop-color="#D4301F"/>
</radialGradient>
<radialGradient id="paint4_radial_0_125" cx="0" cy="0" r="1" gradientUnits="userSpaceOnUse" gradientTransform="translate(4.23628 7.07985) scale(0.704191 1.03381)">
<stop stop-color="#FF6600"/>
<stop offset="0.5" stop-color="#FF4500"/>
<stop offset="0.7" stop-color="#FC4301"/>
<stop offset="0.82" stop-color="#F43F07"/>
<stop offset="0.92" stop-color="#E53812"/>
<stop offset="1" stop-color="#D4301F"/>
</radialGradient>
<radialGradient id="paint5_radial_0_125" cx="0" cy="0" r="1" gradientUnits="userSpaceOnUse" gradientTransform="translate(6.0172 9.12935) scale(2.48308 1.63778)">
<stop stop-color="#172E35"/>
<stop offset="0.29" stop-color="#0E1C21"/>
<stop offset="0.73" stop-color="#030708"/>
<stop offset="1"/>
</radialGradient>
<radialGradient id="paint6_radial_0_125" cx="0" cy="0" r="1" gradientUnits="userSpaceOnUse" gradientTransform="translate(8.20689 1.62855) scale(2.17966)">
<stop stop-color="#FEFFFF"/>
<stop offset="0.4" stop-color="#FEFFFF"/>
<stop offset="0.51" stop-color="#F9FCFC"/>
<stop offset="0.62" stop-color="#EDF3F5"/>
<stop offset="0.7" stop-color="#DEE9EC"/>
<stop offset="0.72" stop-color="#D8E4E8"/>
<stop offset="0.76" stop-color="#CCD8DF"/>
<stop offset="0.8" stop-color="#C8D5DD"/>
<stop offset="0.83" stop-color="#CCD6DE"/>
<stop offset="0.85" stop-color="#D8DBE2"/>
<stop offset="0.88" stop-color="#EDE3E9"/>
<stop offset="0.9" stop-color="#FFEBEF"/>
<stop offset="1" stop-color="#FFEBEF"/>
</radialGradient>
<radialGradient id="paint7_radial_0_125" cx="0" cy="0" r="1" gradientUnits="userSpaceOnUse" gradientTransform="translate(7.29863 4.00471) scale(1.78657)">
<stop stop-color="#7A9299"/>
<stop offset="0.48" stop-color="#7A9299"/>
<stop offset="0.67" stop-color="#172E35"/>
<stop offset="0.75"/>
<stop offset="0.82" stop-color="#172E35"/>
<stop offset="1" stop-color="#172E35"/>
</radialGradient>
<clipPath id="clip0_0_125">
<rect width="12" height="12" fill="white"/>
</clipPath>
</defs>
</svg>
