<svg preserveAspectRatio="none" width="100%" height="100%" overflow="visible" style="display: block;" viewBox="0 0 16 16" fill="none" xmlns="http://www.w3.org/2000/svg">
<g id="social_icons" clip-path="url(#clip0_ytmusic)">
<g id="Vector">
<path d="M7.99812 15.9997C9.58047 16.0001 11.1274 15.5312 12.4433 14.6524C13.7591 13.7736 14.7848 12.5243 15.3906 11.0625C15.9964 9.60076 16.1549 7.99219 15.8462 6.44031C15.5378 4.88838 14.7762 3.46277 13.6575 2.34375C12.5387 1.22486 11.1134 0.462752 9.56156 0.15375C8.00963 -0.154952 6.40102 0.00338681 4.93906 0.608749C3.47705 1.2141 2.22746 2.23954 1.34844 3.55531C0.469294 4.87092 3.26927e-05 6.41769 0 8C0 9.05031 0.206562 10.0906 0.608437 11.0612C1.01015 12.0318 1.59918 12.9137 2.34187 13.6566C3.08461 14.3995 3.96639 14.9888 4.93687 15.3909C5.9074 15.793 6.94763 15.9998 7.99812 15.9997Z" fill="#FF0000"/>
<path d="M7.99813 3.78811C8.83188 3.78717 9.64687 4.03342 10.3406 4.49561C11.0343 4.95806 11.5753 5.61592 11.895 6.38592C12.2147 7.15581 12.2988 8.00324 12.1366 8.82092C11.9749 9.63884 11.5737 10.3902 10.9841 10.9797C10.3949 11.5696 9.64393 11.9714 8.82625 12.1344C8.00861 12.297 7.16109 12.2135 6.39094 11.8944C5.62078 11.5754 4.96258 11.0351 4.49969 10.3419C4.03664 9.64863 3.78955 8.83365 3.78969 7.99999C3.79156 6.88405 4.235 5.81405 5.02375 5.02467C5.81252 4.23514 6.8821 3.79048 7.99813 3.78811ZM6.45375 10.364L10.5453 7.99999L6.45375 5.6378V10.364ZM7.99813 3.14374C7.03719 3.14374 6.09781 3.42874 5.29875 3.96249C4.49984 4.4964 3.87723 5.25528 3.50969 6.14311C3.14197 7.03081 3.04584 8.00763 3.23344 8.94999C3.42111 9.8924 3.88394 10.758 4.56344 11.4375C5.24312 12.1168 6.109 12.5794 7.05156 12.7665C7.99401 12.9538 8.97083 12.8574 9.85844 12.4894C10.7461 12.1215 11.5047 11.4986 12.0381 10.6994C12.5718 9.90029 12.8564 8.96087 12.8559 7.99999C12.8559 7.36186 12.7303 6.7303 12.4863 6.14092C12.2421 5.55167 11.8842 5.01628 11.4331 4.5653C10.9819 4.11443 10.4463 3.7568 9.85688 3.5128C9.26753 3.26894 8.63593 3.14353 7.99813 3.14374Z" fill="white"/>
</g>
</g>
<defs>
<clipPath id="clip0_ytmusic">
<rect width="16" height="16" fill="white"/>
</clipPath>
</defs>
</svg>
