<svg preserveAspectRatio="none" width="100%" height="100%" overflow="visible" style="display: block;" viewBox="0 0 12 12" fill="none" xmlns="http://www.w3.org/2000/svg">
<g id="social_icons" clip-path="url(#clip0_0_79)">
<path id="Vector" fill-rule="evenodd" clip-rule="evenodd" d="M2.70996 0H9.29004C10.0081 0.00207088 10.6962 0.289579 11.204 0.799716C11.7118 1.30985 11.9979 2.00115 12 2.72259V9.27839C11.9977 9.99966 11.7114 10.6907 11.2037 11.2006C10.6959 11.7106 10.008 11.9979 9.29004 12H2.70996C1.99204 11.9979 1.30409 11.7106 0.79635 11.2006C0.288607 10.6907 0.00231876 9.99966 0 9.27839V2.72259C0.00206128 2.00115 0.288236 1.30985 0.796006 0.799716C1.30378 0.289579 1.99187 0.00207088 2.70996 0Z" fill="var(--fill-0, #0A66C2)"/>
<path id="Vector_2" fill-rule="evenodd" clip-rule="evenodd" d="M4.80376 4.6515H6.32036V5.43639H6.34184C6.55376 5.05572 7.06938 4.6515 7.83989 4.6515C9.44047 4.6515 9.73637 5.65223 9.73637 6.95417V9.70718H8.15532V7.26028C8.15532 6.70006 8.1436 5.97894 7.33305 5.97894C6.52251 5.97894 6.38383 6.58821 6.38383 7.22005V9.71208H4.80376V4.6515ZM3.90629 3.119C3.90629 3.28238 3.85807 3.4421 3.76772 3.57795C3.67737 3.7138 3.54895 3.81969 3.3987 3.88221C3.24845 3.94474 3.08312 3.9611 2.92361 3.92922C2.76411 3.89735 2.61759 3.81867 2.5026 3.70314C2.3876 3.58761 2.30929 3.44041 2.27756 3.28016C2.24584 3.11991 2.26212 2.95381 2.32435 2.80286C2.38659 2.65191 2.49198 2.5229 2.6272 2.43212C2.76242 2.34135 2.9214 2.2929 3.08403 2.2929C3.30203 2.29316 3.51102 2.38028 3.66517 2.53515C3.81932 2.69001 3.90604 2.89998 3.90629 3.119ZM2.26372 4.6515H3.90629V9.70718H2.26372V4.6515Z" fill="var(--fill-0, white)"/>
</g>
<defs>
<clipPath id="clip0_0_79">
<rect width="12" height="12" fill="white"/>
</clipPath>
</defs>
</svg>
