<svg preserveAspectRatio="none" width="100%" height="100%" overflow="visible" style="display: block;" viewBox="0 0 16 15.9996" fill="none" xmlns="http://www.w3.org/2000/svg">
<g id="social_icons" clip-path="url(#clip0_spotify)">
<path id="Vector" d="M7.99994 1.65662e-05C3.58177 1.65662e-05 0 3.58167 0 7.99984C0 12.4181 3.58177 15.9997 7.99994 15.9997C12.4186 15.9997 16 12.4182 16 7.99984C16 3.58191 12.4186 0.000376567 7.99982 0.000376567L7.99994 -0.000103434V1.65662e-05ZM11.6687 11.5382C11.5254 11.7731 11.2179 11.8478 10.9828 11.7034C9.10454 10.5561 6.73994 10.2963 3.95521 10.9325C3.68689 10.9936 3.41941 10.8255 3.35821 10.557C3.29677 10.2886 3.46429 10.0211 3.73333 9.96004C6.78074 9.2638 9.3947 9.56356 11.5035 10.8522C11.7386 10.9965 11.8131 11.3031 11.6687 11.5382ZM12.6479 9.35992C12.4673 9.65332 12.0833 9.74596 11.79 9.56548C9.63962 8.24368 6.36182 7.86088 3.81829 8.63308C3.48841 8.73268 3.14005 8.5468 3.03997 8.21752C2.94061 7.88764 3.12661 7.54 3.45589 7.43968C6.36122 6.55815 9.97311 6.98511 12.4426 8.50264C12.7359 8.68324 12.8285 9.06724 12.648 9.36016V9.36004L12.6479 9.35992ZM12.732 7.09167C10.1536 5.56023 5.8997 5.41947 3.43801 6.16659C3.04273 6.28647 2.62465 6.06339 2.50489 5.66799C2.38513 5.27247 2.60809 4.85475 3.00361 4.73463C5.8295 3.87675 10.5271 4.04247 13.4957 5.80479C13.852 6.01587 13.9686 6.47499 13.7574 6.83007C13.5472 7.18563 13.0868 7.30288 12.7324 7.09167H12.732Z" fill="#1ED760"/>
</g>
<defs>
<clipPath id="clip0_spotify">
<rect width="16" height="15.9996" fill="white"/>
</clipPath>
</defs>
</svg>
