<svg preserveAspectRatio="none" width="100%" height="100%" overflow="visible" style="display: block;" viewBox="0 0 16 16" fill="none" xmlns="http://www.w3.org/2000/svg">
<g id="social_icons" clip-path="url(#clip0_youtube)">
<path id="Vector" fill-rule="evenodd" clip-rule="evenodd" d="M15.8367 4.80096C15.8367 4.80096 15.6805 3.69812 15.1997 3.21384C14.5906 2.57693 13.9085 2.57285 13.5967 2.53589C11.3595 2.37288 7.99921 2.37288 7.99921 2.37288H7.99335C7.99335 2.37288 4.63465 2.37288 2.39616 2.53589C2.08311 2.57395 1.40199 2.57659 0.793105 3.21384C0.312048 3.69812 0.159168 4.80096 0.159168 4.80096C0.159168 4.80096 -4.80001e-05 6.09514 -4.80001e-05 7.39206V8.60478C-4.80001e-05 9.89895 0.159072 11.1958 0.159072 11.1958C0.159072 11.1958 0.315264 12.2986 0.793009 12.7837C1.40189 13.4206 2.2021 13.3999 2.55931 13.4679C3.8402 13.5902 8.00031 13.627 8.00031 13.627C8.00031 13.627 11.3634 13.6211 13.6007 13.4611C13.9138 13.4241 14.5946 13.4204 15.2038 12.7831C15.6848 12.2989 15.8407 11.1948 15.8407 11.1948C15.8407 11.1948 16 9.90063 16 8.60382V7.39119C15.9968 6.09701 15.8376 4.8002 15.8376 4.8002L15.8367 4.80106L15.8366 4.80096H15.8367ZM6.34191 10.076V5.57933L10.6641 7.83519L6.34191 10.076Z" fill="#FF0000"/>
</g>
<defs>
<clipPath id="clip0_youtube">
<rect width="16" height="16" fill="white"/>
</clipPath>
</defs>
</svg>
