<svg width="361" height="180" viewBox="0 0 361 180" fill="none" xmlns="http://www.w3.org/2000/svg">
<rect width="361" height="180" fill="url(#paint0_linear_426_6829)"/>
<mask id="path-1-inside-1_426_6829" fill="white">
<path d="M17.71 47.1001C17.71 43.5025 20.6264 40.5861 24.224 40.5861H331.196C334.794 40.5861 337.71 43.5025 337.71 47.1001V145.612C337.71 149.209 334.794 152.126 331.196 152.126H24.224C20.6264 152.126 17.71 149.209 17.71 145.612V47.1001Z"/>
</mask>
<path d="M17.71 47.1001C17.71 43.5025 20.6264 40.5861 24.224 40.5861H331.196C334.794 40.5861 337.71 43.5025 337.71 47.1001V145.612C337.71 149.209 334.794 152.126 331.196 152.126H24.224C20.6264 152.126 17.71 149.209 17.71 145.612V47.1001Z" fill="black"/>
<path d="M17.71 47.1001C17.71 43.0528 20.9909 39.7719 25.0382 39.7719H330.382C334.429 39.7719 337.71 43.0528 337.71 47.1001V47.1001C337.71 43.9522 334.794 41.4004 331.196 41.4004H24.224C20.6264 41.4004 17.71 43.9522 17.71 47.1001V47.1001ZM17.71 47.1001M337.71 152.126H17.71H337.71M337.71 152.126M17.71 152.126V40.5861V152.126M17.71 152.126M337.71 40.5861V152.126V40.5861" fill="#27272A" mask="url(#path-1-inside-1_426_6829)"/>
<rect width="19.542" height="19.542" transform="translate(30.7383 54.6573)" fill="#FAFAFA"/>
<path d="M60.8326 64.7704C60.1725 64.7704 59.5819 64.6575 59.0608 64.4317C58.5484 64.2059 58.1402 63.8759 57.8362 63.4416C57.5409 63.0073 57.3889 62.4819 57.3802 61.8652H59.2432C59.2519 62.1344 59.3214 62.3776 59.4517 62.5948C59.5819 62.8119 59.76 62.9856 59.9858 63.1159C60.2203 63.2375 60.4982 63.2983 60.8196 63.2983C61.0975 63.2983 61.3364 63.2549 61.5361 63.168C61.7446 63.0725 61.9053 62.9422 62.0182 62.7772C62.1311 62.6121 62.1875 62.4167 62.1875 62.1909C62.1875 61.9303 62.1224 61.7132 61.9921 61.5395C61.8705 61.3658 61.6968 61.2181 61.471 61.0965C61.2539 60.975 60.9976 60.8664 60.7023 60.7708C60.4157 60.6666 60.1117 60.5581 59.7904 60.4451C59.0695 60.2106 58.518 59.898 58.1358 59.5071C57.7624 59.1163 57.5756 58.5995 57.5756 57.9568C57.5756 57.4096 57.7059 56.9406 57.9665 56.5498C58.2357 56.1589 58.6048 55.8593 59.0738 55.6508C59.5429 55.4424 60.077 55.3382 60.6763 55.3382C61.2929 55.3382 61.8314 55.4467 62.2918 55.6639C62.7608 55.8723 63.1299 56.1763 63.3991 56.5758C63.6771 56.9754 63.8204 57.4444 63.8291 57.9829H61.953C61.9443 57.7831 61.8835 57.5964 61.7706 57.4227C61.6664 57.2403 61.5188 57.097 61.3277 56.9927C61.1366 56.8798 60.9108 56.8234 60.6502 56.8234C60.4244 56.8147 60.216 56.8494 60.0249 56.9276C59.8425 57.0058 59.6948 57.123 59.5819 57.2793C59.4777 57.427 59.4256 57.6137 59.4256 57.8395C59.4256 58.0567 59.4777 58.2391 59.5819 58.3867C59.6948 58.5344 59.8468 58.6647 60.0379 58.7776C60.229 58.8818 60.4548 58.9817 60.7154 59.0772C60.9759 59.1641 61.2582 59.2553 61.5622 59.3508C62.0138 59.5071 62.4307 59.6939 62.8129 59.911C63.195 60.1194 63.499 60.393 63.7248 60.7318C63.9507 61.0705 64.0636 61.5178 64.0636 62.0736C64.0636 62.5513 63.9376 62.9943 63.6858 63.4025C63.4339 63.8107 63.0691 64.1408 62.5914 64.3926C62.1224 64.6445 61.5361 64.7704 60.8326 64.7704ZM70.5713 67.4803V63.7021C70.3628 64.0148 70.0849 64.271 69.7375 64.4708C69.3987 64.6706 68.9775 64.7704 68.4737 64.7704C67.8658 64.7704 67.3229 64.6228 66.8452 64.3275C66.3676 64.0235 65.9897 63.6109 65.7118 63.0898C65.4426 62.5687 65.3079 61.9825 65.3079 61.3311C65.3079 60.671 65.4469 60.0847 65.7248 59.5723C66.0028 59.0512 66.3806 58.6429 66.8583 58.3476C67.336 58.0437 67.8745 57.8917 68.4737 57.8917C68.8038 57.8917 69.0991 57.9351 69.3596 58.0219C69.6202 58.1001 69.8504 58.2174 70.0501 58.3737C70.2586 58.5213 70.4323 58.6994 70.5713 58.9078L70.7667 58.048H72.33V67.4803H70.5713ZM68.8516 63.2331C69.199 63.2331 69.503 63.155 69.7635 62.9986C70.0328 62.8336 70.2412 62.6078 70.3889 62.3212C70.5365 62.0346 70.6103 61.7045 70.6103 61.3311C70.6103 60.9576 70.5365 60.6275 70.3889 60.3409C70.2412 60.0543 70.0328 59.8328 69.7635 59.6765C69.503 59.5115 69.199 59.429 68.8516 59.429C68.5215 59.429 68.2219 59.5115 67.9526 59.6765C67.6834 59.8328 67.4706 60.0543 67.3143 60.3409C67.1666 60.6275 67.0928 60.9532 67.0928 61.318C67.0928 61.7002 67.1666 62.0346 67.3143 62.3212C67.4706 62.6078 67.679 62.8336 67.9396 62.9986C68.2088 63.155 68.5128 63.2331 68.8516 63.2331ZM76.5025 64.7704C75.9727 64.7704 75.5168 64.6619 75.1346 64.4447C74.7611 64.2189 74.4745 63.8932 74.2748 63.4676C74.075 63.0334 73.9751 62.4992 73.9751 61.8652V58.048H75.7339V61.6828C75.7339 62.2126 75.8425 62.6121 76.0596 62.8814C76.2854 63.1506 76.6285 63.2852 77.0888 63.2852C77.3841 63.2852 77.6447 63.2201 77.8705 63.0898C78.0963 62.9509 78.2744 62.7554 78.4046 62.5036C78.5436 62.243 78.6131 61.926 78.6131 61.5525V58.048H80.3588V64.6141H78.8215L78.6782 63.5458C78.4871 63.9193 78.2049 64.2189 77.8314 64.4447C77.4579 64.6619 77.015 64.7704 76.5025 64.7704ZM84.296 64.7704C83.7489 64.7704 83.2972 64.6836 82.9411 64.5099C82.585 64.3275 82.3201 64.0886 82.1464 63.7933C81.9814 63.4894 81.8989 63.155 81.8989 62.7902C81.8989 62.3907 81.9988 62.0389 82.1985 61.7349C82.407 61.4309 82.7153 61.1921 83.1235 61.0184C83.5404 60.8447 84.0615 60.7578 84.6869 60.7578H86.3154C86.3154 60.4365 86.272 60.1716 86.1851 59.9631C86.0982 59.746 85.9636 59.5853 85.7812 59.4811C85.5988 59.3769 85.3556 59.3247 85.0517 59.3247C84.7216 59.3247 84.4393 59.3986 84.2048 59.5462C83.979 59.6852 83.8401 59.9023 83.7879 60.1976H82.0813C82.1247 59.7286 82.2767 59.3247 82.5373 58.986C82.8065 58.6386 83.1583 58.3694 83.5925 58.1783C84.0355 57.9872 84.5262 57.8917 85.0647 57.8917C85.6813 57.8917 86.2155 57.9959 86.6671 58.2043C87.1188 58.4128 87.4662 58.7124 87.7094 59.1033C87.9526 59.4941 88.0742 59.9761 88.0742 60.5494V64.6141H86.589L86.3935 63.6109C86.298 63.7847 86.1851 63.941 86.0548 64.08C85.9245 64.2189 85.7725 64.3405 85.5988 64.4447C85.4251 64.549 85.2297 64.6271 85.0126 64.6792C84.7954 64.74 84.5566 64.7704 84.296 64.7704ZM84.7129 63.4155C84.9388 63.4155 85.1385 63.3764 85.3122 63.2983C85.4946 63.2114 85.6509 63.0985 85.7812 62.9596C85.9115 62.8119 86.0114 62.6469 86.0809 62.4645C86.159 62.2734 86.2112 62.0693 86.2372 61.8522V61.8391H84.8953C84.6261 61.8391 84.4046 61.8739 84.2309 61.9434C84.0659 62.0042 83.9443 62.0954 83.8661 62.217C83.7879 62.3385 83.7489 62.4775 83.7489 62.6339C83.7489 62.8076 83.7879 62.9509 83.8661 63.0638C83.9443 63.1767 84.0572 63.2635 84.2048 63.3243C84.3525 63.3851 84.5219 63.4155 84.7129 63.4155ZM92.6331 64.7704C92.0339 64.7704 91.4954 64.6228 91.0177 64.3275C90.5487 64.0322 90.1795 63.624 89.9103 63.1029C89.641 62.5817 89.5064 61.9955 89.5064 61.3441C89.5064 60.6753 89.641 60.0847 89.9103 59.5723C90.1882 59.0512 90.566 58.6429 91.0437 58.3476C91.5301 58.0437 92.0729 57.8917 92.6722 57.8917C93.1412 57.8917 93.5538 57.9785 93.9099 58.1522C94.266 58.3259 94.5526 58.5735 94.7697 58.8948V55.2339H96.5285V64.6141H94.9652L94.7697 63.7152C94.6395 63.8976 94.4744 64.0713 94.2747 64.2363C94.0836 64.4013 93.8534 64.5316 93.5842 64.6271C93.3149 64.7227 92.9979 64.7704 92.6331 64.7704ZM93.05 63.2331C93.3974 63.2331 93.7014 63.155 93.962 62.9986C94.2312 62.8336 94.4397 62.6078 94.5873 62.3212C94.735 62.0346 94.8088 61.7045 94.8088 61.3311C94.8088 60.9576 94.735 60.6275 94.5873 60.3409C94.4397 60.0543 94.2312 59.8328 93.962 59.6765C93.7014 59.5115 93.3974 59.429 93.05 59.429C92.72 59.429 92.4204 59.5115 92.1511 59.6765C91.8819 59.8328 91.6691 60.0543 91.5127 60.3409C91.3651 60.6275 91.2913 60.9532 91.2913 61.318C91.2913 61.7002 91.3651 62.0346 91.5127 62.3212C91.6691 62.6078 91.8775 62.8336 92.1381 62.9986C92.4073 63.155 92.7113 63.2331 93.05 63.2331ZM104.497 64.7704C103.837 64.7704 103.246 64.6575 102.725 64.4317C102.213 64.2059 101.804 63.8759 101.5 63.4416C101.205 63.0073 101.053 62.4819 101.044 61.8652H102.907C102.916 62.1344 102.986 62.3776 103.116 62.5948C103.246 62.8119 103.424 62.9856 103.65 63.1159C103.884 63.2375 104.162 63.2983 104.484 63.2983C104.762 63.2983 105.001 63.2549 105.2 63.168C105.409 63.0725 105.569 62.9422 105.682 62.7772C105.795 62.6121 105.852 62.4167 105.852 62.1909C105.852 61.9303 105.787 61.7132 105.656 61.5395C105.535 61.3658 105.361 61.2181 105.135 61.0965C104.918 60.975 104.662 60.8664 104.366 60.7708C104.08 60.6666 103.776 60.5581 103.455 60.4451C102.734 60.2106 102.182 59.898 101.8 59.5071C101.426 59.1163 101.24 58.5995 101.24 57.9568C101.24 57.4096 101.37 56.9406 101.631 56.5498C101.9 56.1589 102.269 55.8593 102.738 55.6508C103.207 55.4424 103.741 55.3382 104.34 55.3382C104.957 55.3382 105.496 55.4467 105.956 55.6639C106.425 55.8723 106.794 56.1763 107.063 56.5758C107.341 56.9754 107.485 57.4444 107.493 57.9829H105.617C105.608 57.7831 105.548 57.5964 105.435 57.4227C105.331 57.2403 105.183 57.097 104.992 56.9927C104.801 56.8798 104.575 56.8234 104.314 56.8234C104.089 56.8147 103.88 56.8494 103.689 56.9276C103.507 57.0058 103.359 57.123 103.246 57.2793C103.142 57.427 103.09 57.6137 103.09 57.8395C103.09 58.0567 103.142 58.2391 103.246 58.3867C103.359 58.5344 103.511 58.6647 103.702 58.7776C103.893 58.8818 104.119 58.9817 104.38 59.0772C104.64 59.1641 104.922 59.2553 105.226 59.3508C105.678 59.5071 106.095 59.6939 106.477 59.911C106.859 60.1194 107.163 60.393 107.389 60.7318C107.615 61.0705 107.728 61.5178 107.728 62.0736C107.728 62.5513 107.602 62.9943 107.35 63.4025C107.098 63.8107 106.733 64.1408 106.256 64.3926C105.787 64.6445 105.2 64.7704 104.497 64.7704ZM109.181 64.6141V55.2339H110.939V59.0251C111.156 58.6777 111.443 58.4041 111.799 58.2043C112.164 57.9959 112.585 57.8917 113.063 57.8917C113.61 57.8917 114.07 58.0089 114.444 58.2434C114.817 58.4692 115.1 58.7993 115.291 59.2335C115.482 59.6678 115.577 60.2063 115.577 60.849V64.6141H113.832V61.0054C113.832 60.4842 113.723 60.0847 113.506 59.8068C113.289 59.5202 112.946 59.3769 112.477 59.3769C112.19 59.3769 111.929 59.4463 111.695 59.5853C111.46 59.7243 111.274 59.9284 111.135 60.1976C111.004 60.4582 110.939 60.7708 110.939 61.1356V64.6141H109.181ZM118.69 59.924L118.938 58.1001L117.518 59.2596L116.854 58.1001L118.534 57.4487L116.867 56.8103L117.479 55.716L118.951 56.8494L118.677 55.0125H119.954L119.668 56.8494L121.14 55.716L121.739 56.7973L120.058 57.4617L121.752 58.1131L121.114 59.2466L119.668 58.1001L119.941 59.924H118.69ZM126.438 64.6141C125.978 64.6141 125.574 64.5446 125.227 64.4057C124.888 64.258 124.623 64.0192 124.432 63.6891C124.241 63.3504 124.145 62.8901 124.145 62.3082V59.5202H123.025V58.048H124.145L124.341 56.2632H125.904V58.048H127.637V59.5202H125.904V62.3342C125.904 62.6295 125.969 62.8336 126.099 62.9465C126.23 63.0594 126.451 63.1159 126.764 63.1159H127.624V64.6141H126.438Z" fill="#E4E4E7"/>
<path d="M57.6082 74.2426V70.1714H58.4224V73.4284H60.0509V74.2426H57.6082ZM63.3079 74.2426V73.4284H62.4937V71.7999H61.6794V70.1714H62.4937V71.7999H63.3079V73.4284H64.1222V74.2426H63.3079ZM64.9364 71.7999V70.1714H65.7507V71.7999H64.9364ZM64.1222 73.4284V71.7999H64.9364V73.4284H64.1222ZM67.3792 74.2426V73.4284H68.1934V74.2426H67.3792ZM69.8219 74.2426V73.4284H70.6362V70.9856H69.8219V70.1714H71.4504V73.4284H72.2647V74.2426H69.8219ZM77.1502 72.6141V71.7999H77.9644V72.6141H77.1502ZM85.2927 71.7999V70.9856H82.8499V70.1714H85.2927V70.9856H86.1069V71.7999H85.2927ZM83.6642 72.6141V71.7999H85.2927V72.6141H83.6642ZM82.8499 74.2426V72.6141H83.6642V73.4284H86.1069V74.2426H82.8499ZM88.5497 74.2426V73.4284H87.7354V70.9856H88.5497V70.1714H90.1782V70.9856H90.9924V73.4284H90.1782V74.2426H88.5497ZM88.5497 73.3958H90.1782V71.0182H88.5497V73.3958ZM95.8779 74.2426V70.1714H96.6922V70.9856H97.5064V71.7999H98.3207V72.6141H97.5064V71.7999H96.6922V74.2426H95.8779ZM99.1349 74.2426V71.7999H98.3207V70.9856H99.1349V70.1714H99.9492V74.2426H99.1349ZM101.578 74.2426V70.1714H104.02V70.9856H102.392V71.7999H104.02V72.6141H102.392V73.4284H104.02V74.2426H101.578ZM105.649 74.2426V70.1714H106.463V70.9856H107.277V71.7999H108.092V72.6141H107.277V71.7999H106.463V74.2426H105.649ZM108.906 74.2426V71.7999H108.092V70.9856H108.906V70.1714H109.72V74.2426H108.906ZM111.349 74.2426V70.1714H113.791V70.9856H114.606V73.4284H113.791V74.2426H111.349ZM112.163 71.7999H113.759V70.9856H112.163V71.7999ZM112.163 73.4284H113.759V72.6141H112.163V73.4284ZM116.234 74.2426V70.1714H118.677V70.9856H117.048V71.7999H118.677V72.6141H117.048V73.4284H118.677V74.2426H116.234ZM120.305 74.2426V70.1714H122.748V70.9856H123.562V71.7999H122.748V73.4284H123.562V74.2426H122.748V73.4284H121.934V72.6141H121.12V74.2426H120.305ZM121.12 71.7999H122.716V70.9856H121.12V71.7999Z" fill="#A1A1AA"/>
<path d="M212.316 72.5709H210.688V69.3139H212.316V72.5709ZM223.715 69.3139H225.344V70.9424H223.715V72.5709H222.087V70.9424H220.458V69.3139H222.087V67.6854H223.715V69.3139ZM213.944 69.3139H212.316V67.6854H213.944V69.3139ZM220.458 67.6854H213.944V66.0569H220.458V67.6854ZM219.644 64.4284H214.759V62.7999H219.644V64.4284ZM214.759 62.7999H213.13V57.9144H214.759V62.7999ZM221.273 62.7999H219.644V57.9144H221.273V62.7999ZM219.644 57.9144H214.759V56.2859H219.644V57.9144Z" fill="#E4E4E7"/>
<path d="M247.329 56.2859H252.214V57.9144H247.329V56.2859ZM245.7 57.9144H247.329V59.5429H245.7V57.9144ZM252.214 57.9144H253.843V59.5429H252.214V57.9144ZM244.072 59.5429H245.7V65.2426H244.072V59.5429ZM253.843 59.5429H255.471V65.2426H253.843V59.5429ZM242.443 65.2426H244.072V68.4996H242.443V65.2426ZM255.471 65.2426H257.1V68.4996H255.471V65.2426Z" fill="#E4E4E7"/>
<path d="M242.443 66.8711H257.1V68.4996H242.443V66.8711ZM246.515 69.3138H248.143V70.9423H246.515V69.3138ZM251.4 69.3138H253.029V70.9423H251.4V69.3138ZM248.143 70.9423H251.4V72.5708H248.143V70.9423Z" fill="#FAFAFA"/>
<path d="M276.641 71.7566H275.013V57.9143H276.641V71.7566ZM279.898 71.7566H278.27V61.1713H279.898V71.7566ZM283.155 71.7566H281.527V59.5428H283.155V71.7566ZM289.669 71.7566H288.041V67.6853H289.669V71.7566ZM288.041 67.6853H286.412V63.6141H288.041V67.6853ZM286.412 63.6141H284.784V59.5428H286.412V63.6141Z" fill="#E4E4E7"/>
<path d="M315.726 61.1714H314.097V62.7999H315.726V61.1714ZM314.097 62.7999H312.469V64.4284H314.097V62.7999ZM317.354 62.7999H315.726V64.4284H317.354V62.7999ZM312.469 64.4284H310.84V66.0569H312.469V64.4284ZM318.983 64.4284H317.354V66.0569H318.983V64.4284ZM310.84 66.0569H309.212V67.6854H310.84V66.0569ZM320.611 66.0569H318.983V67.6854H320.611V66.0569Z" fill="#FAFAFA"/>
<rect x="31.1454" y="88.6778" width="293.13" height="40.2417" stroke="#27272A" stroke-width="0.81425"/>
<path d="M50.823 108.256H54.6228V109.341H50.823V113.141H49.7373V109.341H45.9375V108.256H49.7373V104.456H50.823V108.256Z" fill="#FAFAFA"/>
<path d="M70.6772 112.299V104.319H71.7944L74.6101 109.893L77.4371 104.319H78.5657V112.299H77.6081V106.029L74.9748 111.181H74.2567L71.6348 106.052V112.299H70.6772ZM82.7244 112.435C82.1849 112.435 81.7061 112.31 81.2881 112.059C80.8777 111.808 80.5547 111.459 80.3192 111.011C80.0836 110.555 79.9658 110.026 79.9658 109.426C79.9658 108.818 80.0798 108.29 80.3078 107.841C80.5433 107.393 80.8701 107.043 81.2881 106.793C81.7137 106.542 82.2001 106.417 82.7472 106.417C83.3096 106.417 83.7846 106.542 84.1722 106.793C84.5674 107.043 84.8676 107.374 85.0727 107.784C85.2855 108.187 85.3919 108.632 85.3919 109.118C85.3919 109.194 85.3919 109.274 85.3919 109.358C85.3919 109.441 85.3881 109.536 85.3805 109.643H80.6839V108.902H84.4572C84.4344 108.377 84.2596 107.967 83.9328 107.67C83.6136 107.374 83.2108 107.226 82.7244 107.226C82.3977 107.226 82.0937 107.302 81.8125 107.454C81.5389 107.598 81.3185 107.815 81.1513 108.104C80.9841 108.385 80.9005 108.738 80.9005 109.164V109.483C80.9005 109.954 80.9841 110.349 81.1513 110.669C81.3261 110.988 81.5503 111.227 81.8239 111.387C82.1051 111.546 82.4053 111.626 82.7244 111.626C83.1272 111.626 83.4578 111.539 83.7162 111.364C83.9822 111.181 84.1722 110.938 84.2862 110.634H85.2323C85.1411 110.976 84.9815 111.284 84.7536 111.558C84.5256 111.831 84.2406 112.048 83.8986 112.207C83.5642 112.359 83.1728 112.435 82.7244 112.435ZM88.8501 112.435C88.3713 112.435 87.9533 112.356 87.5961 112.196C87.2465 112.036 86.9654 111.816 86.7526 111.535C86.5474 111.246 86.422 110.908 86.3764 110.52H87.3567C87.3947 110.718 87.4745 110.9 87.5961 111.067C87.7177 111.235 87.8811 111.371 88.0863 111.478C88.2991 111.577 88.5575 111.626 88.8615 111.626C89.1275 111.626 89.3478 111.588 89.5226 111.512C89.6974 111.428 89.8266 111.318 89.9102 111.181C90.0014 111.045 90.047 110.897 90.047 110.737C90.047 110.501 89.99 110.323 89.876 110.201C89.7696 110.08 89.61 109.985 89.3972 109.916C89.1845 109.84 88.9261 109.776 88.6221 109.722C88.3713 109.677 88.1243 109.616 87.8811 109.54C87.6379 109.464 87.4213 109.365 87.2313 109.244C87.0414 109.114 86.8894 108.959 86.7754 108.776C86.669 108.594 86.6158 108.37 86.6158 108.104C86.6158 107.777 86.6994 107.488 86.8666 107.237C87.0338 106.979 87.2731 106.777 87.5847 106.633C87.9039 106.489 88.2725 106.417 88.6905 106.417C89.3061 106.417 89.8038 106.565 90.1838 106.861C90.5638 107.157 90.788 107.587 90.8564 108.149H89.9102C89.8722 107.86 89.7468 107.636 89.534 107.477C89.3288 107.309 89.0439 107.226 88.6791 107.226C88.3219 107.226 88.0483 107.298 87.8583 107.442C87.6759 107.587 87.5847 107.777 87.5847 108.012C87.5847 108.164 87.6341 108.301 87.7329 108.423C87.8393 108.537 87.9913 108.636 88.1889 108.719C88.3941 108.803 88.6449 108.871 88.9413 108.924C89.3212 108.993 89.667 109.084 89.9786 109.198C90.2902 109.312 90.541 109.483 90.731 109.711C90.9286 109.931 91.0274 110.247 91.0274 110.657C91.0274 111.014 90.9362 111.326 90.7538 111.592C90.579 111.858 90.3282 112.067 90.0014 112.219C89.6746 112.363 89.2909 112.435 88.8501 112.435ZM94.5721 112.435C94.0933 112.435 93.6753 112.356 93.3181 112.196C92.9686 112.036 92.6874 111.816 92.4746 111.535C92.2694 111.246 92.144 110.908 92.0984 110.52H93.0787C93.1167 110.718 93.1965 110.9 93.3181 111.067C93.4397 111.235 93.6031 111.371 93.8083 111.478C94.0211 111.577 94.2795 111.626 94.5835 111.626C94.8495 111.626 95.0699 111.588 95.2447 111.512C95.4194 111.428 95.5486 111.318 95.6322 111.181C95.7234 111.045 95.769 110.897 95.769 110.737C95.769 110.501 95.712 110.323 95.598 110.201C95.4916 110.08 95.332 109.985 95.1193 109.916C94.9065 109.84 94.6481 109.776 94.3441 109.722C94.0933 109.677 93.8463 109.616 93.6031 109.54C93.3599 109.464 93.1433 109.365 92.9534 109.244C92.7634 109.114 92.6114 108.959 92.4974 108.776C92.391 108.594 92.3378 108.37 92.3378 108.104C92.3378 107.777 92.4214 107.488 92.5886 107.237C92.7558 106.979 92.9952 106.777 93.3067 106.633C93.6259 106.489 93.9945 106.417 94.4125 106.417C95.0281 106.417 95.5258 106.565 95.9058 106.861C96.2858 107.157 96.51 107.587 96.5784 108.149H95.6322C95.5942 107.86 95.4688 107.636 95.2561 107.477C95.0509 107.309 94.7659 107.226 94.4011 107.226C94.0439 107.226 93.7703 107.298 93.5803 107.442C93.3979 107.587 93.3067 107.777 93.3067 108.012C93.3067 108.164 93.3561 108.301 93.4549 108.423C93.5613 108.537 93.7133 108.636 93.9109 108.719C94.1161 108.803 94.3669 108.871 94.6633 108.924C95.0433 108.993 95.389 109.084 95.7006 109.198C96.0122 109.312 96.263 109.483 96.453 109.711C96.6506 109.931 96.7494 110.247 96.7494 110.657C96.7494 111.014 96.6582 111.326 96.4758 111.592C96.301 111.858 96.0502 112.067 95.7234 112.219C95.3966 112.363 95.0129 112.435 94.5721 112.435ZM99.9977 112.435C99.5341 112.435 99.1465 112.356 98.835 112.196C98.5234 112.029 98.2916 111.812 98.1396 111.546C97.9876 111.273 97.9116 110.976 97.9116 110.657C97.9116 110.27 98.0104 109.943 98.208 109.677C98.4132 109.403 98.6982 109.198 99.0629 109.061C99.4353 108.917 99.8723 108.845 100.374 108.845H101.89C101.89 108.487 101.833 108.191 101.719 107.955C101.613 107.712 101.453 107.53 101.24 107.408C101.035 107.287 100.777 107.226 100.465 107.226C100.1 107.226 99.7849 107.317 99.5189 107.499C99.2529 107.682 99.0895 107.952 99.0287 108.309H98.0484C98.094 107.898 98.2308 107.556 98.4588 107.283C98.6944 107.002 98.9908 106.789 99.3479 106.644C99.7051 106.493 100.078 106.417 100.465 106.417C100.997 106.417 101.438 106.515 101.787 106.713C102.145 106.903 102.411 107.173 102.585 107.522C102.76 107.864 102.848 108.271 102.848 108.742V112.299H101.993L101.936 111.284C101.86 111.444 101.761 111.596 101.639 111.74C101.525 111.877 101.388 111.998 101.229 112.105C101.069 112.204 100.887 112.283 100.682 112.344C100.484 112.405 100.256 112.435 99.9977 112.435ZM100.146 111.626C100.412 111.626 100.651 111.573 100.864 111.466C101.084 111.352 101.271 111.2 101.423 111.011C101.575 110.813 101.689 110.596 101.765 110.361C101.848 110.125 101.89 109.878 101.89 109.62V109.586H100.454C100.081 109.586 99.7811 109.631 99.5531 109.722C99.3251 109.806 99.1617 109.928 99.0629 110.087C98.9642 110.239 98.9148 110.414 98.9148 110.612C98.9148 110.817 98.9604 110.995 99.0515 111.147C99.1503 111.299 99.2909 111.417 99.4733 111.501C99.6633 111.584 99.8875 111.626 100.146 111.626ZM106.597 114.943C106.081 114.943 105.621 114.875 105.218 114.738C104.823 114.609 104.515 114.408 104.295 114.134C104.074 113.86 103.964 113.522 103.964 113.119C103.964 112.945 103.998 112.758 104.067 112.561C104.143 112.363 104.268 112.169 104.443 111.979C104.625 111.789 104.88 111.618 105.207 111.466L105.868 111.854C105.465 112.021 105.203 112.211 105.081 112.424C104.96 112.644 104.899 112.846 104.899 113.028C104.899 113.279 104.971 113.488 105.115 113.655C105.26 113.822 105.461 113.948 105.72 114.031C105.978 114.115 106.271 114.157 106.597 114.157C106.924 114.157 107.205 114.111 107.441 114.02C107.677 113.929 107.859 113.8 107.988 113.632C108.117 113.465 108.182 113.268 108.182 113.04C108.182 112.774 108.083 112.549 107.886 112.367C107.688 112.192 107.312 112.09 106.757 112.059C106.309 112.029 105.932 111.987 105.628 111.934C105.324 111.881 105.074 111.82 104.876 111.751C104.678 111.675 104.511 111.592 104.374 111.501C104.245 111.409 104.127 111.314 104.021 111.216V110.954L105.127 109.859L105.959 110.156L104.819 111.181L104.967 110.783C105.051 110.843 105.131 110.9 105.207 110.954C105.283 111.007 105.385 111.052 105.514 111.09C105.644 111.128 105.822 111.162 106.05 111.193C106.286 111.223 106.594 111.254 106.974 111.284C107.498 111.322 107.916 111.413 108.228 111.558C108.547 111.702 108.775 111.896 108.911 112.139C109.056 112.382 109.128 112.671 109.128 113.005C109.128 113.332 109.037 113.64 108.854 113.929C108.68 114.225 108.406 114.468 108.034 114.658C107.661 114.848 107.183 114.943 106.597 114.943ZM106.586 110.498C106.107 110.498 105.697 110.406 105.355 110.224C105.02 110.042 104.766 109.798 104.591 109.494C104.416 109.183 104.329 108.837 104.329 108.457C104.329 108.077 104.416 107.735 104.591 107.431C104.773 107.127 105.032 106.884 105.366 106.701C105.701 106.512 106.107 106.417 106.586 106.417C107.065 106.417 107.471 106.512 107.806 106.701C108.14 106.884 108.395 107.127 108.57 107.431C108.744 107.735 108.832 108.077 108.832 108.457C108.832 108.837 108.744 109.183 108.57 109.494C108.395 109.798 108.14 110.042 107.806 110.224C107.471 110.406 107.065 110.498 106.586 110.498ZM106.586 109.711C106.996 109.711 107.319 109.605 107.555 109.392C107.791 109.179 107.908 108.867 107.908 108.457C107.908 108.054 107.791 107.746 107.555 107.534C107.319 107.321 106.996 107.214 106.586 107.214C106.183 107.214 105.856 107.321 105.606 107.534C105.362 107.746 105.241 108.054 105.241 108.457C105.241 108.867 105.362 109.179 105.606 109.392C105.849 109.605 106.176 109.711 106.586 109.711ZM107.521 107.363L107.236 106.553H109.584V107.271L107.521 107.363ZM112.982 112.435C112.443 112.435 111.964 112.31 111.546 112.059C111.135 111.808 110.812 111.459 110.577 111.011C110.341 110.555 110.223 110.026 110.223 109.426C110.223 108.818 110.337 108.29 110.565 107.841C110.801 107.393 111.128 107.043 111.546 106.793C111.971 106.542 112.458 106.417 113.005 106.417C113.567 106.417 114.042 106.542 114.43 106.793C114.825 107.043 115.125 107.374 115.33 107.784C115.543 108.187 115.65 108.632 115.65 109.118C115.65 109.194 115.65 109.274 115.65 109.358C115.65 109.441 115.646 109.536 115.638 109.643H110.942V108.902H114.715C114.692 108.377 114.517 107.967 114.19 107.67C113.871 107.374 113.468 107.226 112.982 107.226C112.655 107.226 112.351 107.302 112.07 107.454C111.797 107.598 111.576 107.815 111.409 108.104C111.242 108.385 111.158 108.738 111.158 109.164V109.483C111.158 109.954 111.242 110.349 111.409 110.669C111.584 110.988 111.808 111.227 112.082 111.387C112.363 111.546 112.663 111.626 112.982 111.626C113.385 111.626 113.715 111.539 113.974 111.364C114.24 111.181 114.43 110.938 114.544 110.634H115.49C115.399 110.976 115.239 111.284 115.011 111.558C114.783 111.831 114.498 112.048 114.156 112.207C113.822 112.359 113.43 112.435 112.982 112.435ZM122.227 112.299C121.885 112.299 121.589 112.245 121.338 112.139C121.087 112.033 120.893 111.854 120.756 111.603C120.627 111.345 120.563 110.999 120.563 110.566V107.363H119.559V106.553H120.563L120.688 105.163H121.52V106.553H123.184V107.363H121.52V110.566C121.52 110.923 121.592 111.166 121.737 111.295C121.881 111.417 122.136 111.478 122.5 111.478H123.116V112.299H122.227ZM124.434 112.299V104.091H125.391V107.522C125.581 107.18 125.847 106.91 126.189 106.713C126.539 106.515 126.919 106.417 127.329 106.417C127.77 106.417 128.154 106.508 128.481 106.69C128.807 106.865 129.058 107.135 129.233 107.499C129.408 107.864 129.495 108.324 129.495 108.879V112.299H128.549V108.981C128.549 108.404 128.427 107.971 128.184 107.682C127.941 107.385 127.588 107.237 127.124 107.237C126.797 107.237 126.501 107.317 126.235 107.477C125.977 107.636 125.771 107.864 125.619 108.161C125.467 108.457 125.391 108.822 125.391 109.255V112.299H124.434ZM133.51 112.435C132.971 112.435 132.492 112.31 132.074 112.059C131.663 111.808 131.34 111.459 131.105 111.011C130.869 110.555 130.751 110.026 130.751 109.426C130.751 108.818 130.865 108.29 131.093 107.841C131.329 107.393 131.656 107.043 132.074 106.793C132.499 106.542 132.986 106.417 133.533 106.417C134.095 106.417 134.57 106.542 134.958 106.793C135.353 107.043 135.653 107.374 135.858 107.784C136.071 108.187 136.178 108.632 136.178 109.118C136.178 109.194 136.178 109.274 136.178 109.358C136.178 109.441 136.174 109.536 136.166 109.643H131.47V108.902H135.243C135.22 108.377 135.045 107.967 134.718 107.67C134.399 107.374 133.996 107.226 133.51 107.226C133.183 107.226 132.879 107.302 132.598 107.454C132.325 107.598 132.104 107.815 131.937 108.104C131.77 108.385 131.686 108.738 131.686 109.164V109.483C131.686 109.954 131.77 110.349 131.937 110.669C132.112 110.988 132.336 111.227 132.61 111.387C132.891 111.546 133.191 111.626 133.51 111.626C133.913 111.626 134.243 111.539 134.502 111.364C134.768 111.181 134.958 110.938 135.072 110.634H136.018C135.927 110.976 135.767 111.284 135.539 111.558C135.311 111.831 135.026 112.048 134.684 112.207C134.35 112.359 133.958 112.435 133.51 112.435ZM142.664 112.435C142.185 112.435 141.767 112.356 141.41 112.196C141.06 112.036 140.779 111.816 140.566 111.535C140.361 111.246 140.236 110.908 140.19 110.52H141.17C141.208 110.718 141.288 110.9 141.41 111.067C141.531 111.235 141.695 111.371 141.9 111.478C142.113 111.577 142.371 111.626 142.675 111.626C142.941 111.626 143.161 111.588 143.336 111.512C143.511 111.428 143.64 111.318 143.724 111.181C143.815 111.045 143.861 110.897 143.861 110.737C143.861 110.501 143.804 110.323 143.69 110.201C143.583 110.08 143.424 109.985 143.211 109.916C142.998 109.84 142.74 109.776 142.436 109.722C142.185 109.677 141.938 109.616 141.695 109.54C141.452 109.464 141.235 109.365 141.045 109.244C140.855 109.114 140.703 108.959 140.589 108.776C140.483 108.594 140.429 108.37 140.429 108.104C140.429 107.777 140.513 107.488 140.68 107.237C140.847 106.979 141.087 106.777 141.398 106.633C141.718 106.489 142.086 106.417 142.504 106.417C143.12 106.417 143.617 106.565 143.997 106.861C144.377 107.157 144.602 107.587 144.67 108.149H143.724C143.686 107.86 143.56 107.636 143.348 107.477C143.142 107.309 142.857 107.226 142.493 107.226C142.136 107.226 141.862 107.298 141.672 107.442C141.49 107.587 141.398 107.777 141.398 108.012C141.398 108.164 141.448 108.301 141.547 108.423C141.653 108.537 141.805 108.636 142.003 108.719C142.208 108.803 142.459 108.871 142.755 108.924C143.135 108.993 143.481 109.084 143.792 109.198C144.104 109.312 144.355 109.483 144.545 109.711C144.742 109.931 144.841 110.247 144.841 110.657C144.841 111.014 144.75 111.326 144.567 111.592C144.393 111.858 144.142 112.067 143.815 112.219C143.488 112.363 143.104 112.435 142.664 112.435ZM150.814 114.807V111.364C150.631 111.66 150.365 111.915 150.016 112.128C149.674 112.333 149.256 112.435 148.762 112.435C148.2 112.435 147.709 112.306 147.291 112.048C146.873 111.782 146.55 111.425 146.322 110.976C146.094 110.52 145.98 110.004 145.98 109.426C145.98 108.848 146.094 108.335 146.322 107.887C146.55 107.431 146.873 107.074 147.291 106.815C147.717 106.549 148.207 106.417 148.762 106.417C149.089 106.417 149.381 106.462 149.64 106.553C149.906 106.644 150.137 106.774 150.335 106.941C150.533 107.1 150.692 107.287 150.814 107.499L150.905 106.553H151.771V114.807H150.814ZM148.864 111.603C149.244 111.603 149.579 111.512 149.868 111.33C150.156 111.147 150.381 110.897 150.54 110.577C150.7 110.251 150.78 109.867 150.78 109.426C150.78 108.993 150.7 108.613 150.54 108.286C150.381 107.959 150.156 107.705 149.868 107.522C149.579 107.34 149.244 107.249 148.864 107.249C148.492 107.249 148.162 107.34 147.873 107.522C147.584 107.705 147.36 107.959 147.2 108.286C147.041 108.613 146.961 108.993 146.961 109.426C146.961 109.867 147.041 110.251 147.2 110.577C147.36 110.897 147.584 111.147 147.873 111.33C148.162 111.512 148.492 111.603 148.864 111.603ZM155.453 112.435C155.012 112.435 154.624 112.348 154.29 112.173C153.963 111.998 153.709 111.729 153.526 111.364C153.352 110.999 153.264 110.543 153.264 109.996V106.553H154.222V109.893C154.222 110.463 154.347 110.893 154.598 111.181C154.849 111.47 155.202 111.615 155.658 111.615C155.977 111.615 156.266 111.539 156.524 111.387C156.783 111.227 156.984 111.003 157.129 110.714C157.281 110.418 157.357 110.057 157.357 109.631V106.553H158.314V112.299H157.448L157.391 111.295C157.216 111.653 156.958 111.934 156.616 112.139C156.274 112.337 155.886 112.435 155.453 112.435ZM161.771 112.435C161.307 112.435 160.92 112.356 160.608 112.196C160.297 112.029 160.065 111.812 159.913 111.546C159.761 111.273 159.685 110.976 159.685 110.657C159.685 110.27 159.784 109.943 159.981 109.677C160.186 109.403 160.471 109.198 160.836 109.061C161.209 108.917 161.646 108.845 162.147 108.845H163.663C163.663 108.487 163.606 108.191 163.492 107.955C163.386 107.712 163.226 107.53 163.013 107.408C162.808 107.287 162.55 107.226 162.238 107.226C161.874 107.226 161.558 107.317 161.292 107.499C161.026 107.682 160.863 107.952 160.802 108.309H159.822C159.867 107.898 160.004 107.556 160.232 107.283C160.468 107.002 160.764 106.789 161.121 106.644C161.478 106.493 161.851 106.417 162.238 106.417C162.77 106.417 163.211 106.515 163.561 106.713C163.918 106.903 164.184 107.173 164.359 107.522C164.533 107.864 164.621 108.271 164.621 108.742V112.299H163.766L163.709 111.284C163.633 111.444 163.534 111.596 163.412 111.74C163.298 111.877 163.162 111.998 163.002 112.105C162.842 112.204 162.66 112.283 162.455 112.344C162.257 112.405 162.029 112.435 161.771 112.435ZM161.919 111.626C162.185 111.626 162.425 111.573 162.637 111.466C162.858 111.352 163.044 111.2 163.196 111.011C163.348 110.813 163.462 110.596 163.538 110.361C163.621 110.125 163.663 109.878 163.663 109.62V109.586H162.227C161.855 109.586 161.554 109.631 161.326 109.722C161.098 109.806 160.935 109.928 160.836 110.087C160.737 110.239 160.688 110.414 160.688 110.612C160.688 110.817 160.734 110.995 160.825 111.147C160.924 111.299 161.064 111.417 161.247 111.501C161.437 111.584 161.661 111.626 161.919 111.626ZM168.633 112.435C168.078 112.435 167.592 112.306 167.174 112.048C166.756 111.782 166.433 111.421 166.205 110.965C165.977 110.509 165.863 109.992 165.863 109.415C165.863 108.837 165.977 108.324 166.205 107.876C166.433 107.42 166.756 107.062 167.174 106.804C167.599 106.546 168.089 106.417 168.644 106.417C169.115 106.417 169.526 106.512 169.875 106.701C170.233 106.891 170.506 107.157 170.696 107.499V104.091H171.654V112.299H170.787L170.708 111.352C170.586 111.542 170.43 111.721 170.24 111.888C170.05 112.048 169.822 112.181 169.556 112.287C169.29 112.386 168.982 112.435 168.633 112.435ZM168.747 111.603C169.127 111.603 169.461 111.512 169.75 111.33C170.039 111.147 170.263 110.897 170.423 110.577C170.582 110.251 170.662 109.867 170.662 109.426C170.662 108.993 170.582 108.613 170.423 108.286C170.263 107.959 170.039 107.705 169.75 107.522C169.461 107.34 169.127 107.249 168.747 107.249C168.374 107.249 168.044 107.34 167.755 107.522C167.466 107.705 167.242 107.959 167.082 108.286C166.923 108.613 166.843 108.993 166.843 109.426C166.843 109.867 166.923 110.251 167.082 110.577C167.242 110.897 167.466 111.147 167.755 111.33C168.044 111.512 168.374 111.603 168.747 111.603ZM173.591 112.356C173.401 112.356 173.241 112.295 173.112 112.173C172.991 112.044 172.93 111.888 172.93 111.706C172.93 111.523 172.991 111.371 173.112 111.25C173.241 111.121 173.401 111.056 173.591 111.056C173.781 111.056 173.937 111.121 174.058 111.25C174.18 111.371 174.241 111.523 174.241 111.706C174.241 111.888 174.18 112.044 174.058 112.173C173.937 112.295 173.781 112.356 173.591 112.356ZM175.851 112.356C175.661 112.356 175.501 112.295 175.372 112.173C175.251 112.044 175.19 111.888 175.19 111.706C175.19 111.523 175.251 111.371 175.372 111.25C175.501 111.121 175.661 111.056 175.851 111.056C176.041 111.056 176.197 111.121 176.318 111.25C176.44 111.371 176.501 111.523 176.501 111.706C176.501 111.888 176.44 112.044 176.318 112.173C176.197 112.295 176.041 112.356 175.851 112.356ZM178.111 112.356C177.921 112.356 177.761 112.295 177.632 112.173C177.51 112.044 177.45 111.888 177.45 111.706C177.45 111.523 177.51 111.371 177.632 111.25C177.761 111.121 177.921 111.056 178.111 111.056C178.301 111.056 178.457 111.121 178.578 111.25C178.7 111.371 178.761 111.523 178.761 111.706C178.761 111.888 178.7 112.044 178.578 112.173C178.457 112.295 178.301 112.356 178.111 112.356Z" fill="#71717A"/>
<path d="M300.798 112.598H302.969V113.684H299.712V109.341H300.798V112.598ZM305.14 112.598H302.969V111.513H305.14V112.598ZM307.312 111.513H305.14V110.427H307.312V111.513ZM309.483 110.427H307.312V109.341H309.483V110.427ZM304.055 109.341H300.798V108.256H304.055V109.341ZM310.569 109.341H309.483V108.256H310.569V109.341ZM302.969 104.999H300.798V108.256H299.712V103.913H302.969V104.999ZM309.483 108.256H307.312V107.17H309.483V108.256ZM307.312 107.17H305.14V106.084H307.312V107.17ZM305.14 106.084H302.969V104.999H305.14V106.084Z" fill="#71717A"/>
<defs>
<linearGradient id="paint0_linear_426_6829" x1="0" y1="90" x2="361" y2="90" gradientUnits="userSpaceOnUse">
<stop stop-color="#A855F7"/>
<stop offset="1" stop-color="#D946EF"/>
</linearGradient>
</defs>
</svg>
