<svg width="361" height="180" viewBox="0 0 361 180" fill="none" xmlns="http://www.w3.org/2000/svg">
<g clip-path="url(#clip0_537_2881)">
<rect width="361" height="180" fill="#111111"/>
<path d="M60.5 41.771C60.5 36.3746 64.8746 32 70.271 32H290.729C296.125 32 300.5 36.3746 300.5 41.771V242.305H60.5V41.771Z" fill="#0D0D0D"/>
<path d="M70.9452 54.6565V47.8168H75.4008V48.8818H72.2643V50.709H74.7754V51.7447H72.2643V54.6565H70.9452ZM76.3453 54.6565V49.7319H77.5178L77.6448 50.6406C77.7621 50.4257 77.9086 50.2433 78.0845 50.0934C78.2669 49.9436 78.4721 49.8264 78.7001 49.7417C78.9346 49.657 79.1919 49.6147 79.472 49.6147V51.0119H79.0225C78.8271 51.0119 78.6447 51.0347 78.4753 51.0803C78.3125 51.1259 78.1692 51.2008 78.0454 51.305C77.9217 51.4028 77.8272 51.5395 77.7621 51.7154C77.6969 51.8913 77.6644 52.1128 77.6644 52.3799V54.6565H76.3453ZM80.3727 54.6565V49.7319H81.6918V54.6565H80.3727ZM81.0371 49.0577C80.8026 49.0577 80.6072 48.9893 80.4508 48.8525C80.301 48.7092 80.2261 48.5301 80.2261 48.3151C80.2261 48.1002 80.301 47.9243 80.4508 47.7875C80.6072 47.6442 80.8026 47.5725 81.0371 47.5725C81.2781 47.5725 81.4735 47.6442 81.6234 47.7875C81.7797 47.9243 81.8579 48.1002 81.8579 48.3151C81.8579 48.5301 81.7797 48.7092 81.6234 48.8525C81.4735 48.9893 81.2781 49.0577 81.0371 49.0577ZM85.3892 54.7737C84.8942 54.7737 84.4545 54.6695 84.0702 54.4611C83.6923 54.2461 83.396 53.9497 83.181 53.5719C82.9725 53.1876 82.8683 52.7446 82.8683 52.2431C82.8683 51.7285 82.9725 51.2757 83.181 50.8849C83.396 50.4875 83.6923 50.1781 84.0702 49.9566C84.448 49.7287 84.8877 49.6147 85.3892 49.6147C85.8778 49.6147 86.3045 49.7221 86.6692 49.9371C87.034 50.1521 87.3174 50.4419 87.5193 50.8067C87.7213 51.1715 87.8222 51.5851 87.8222 52.0476C87.8222 52.1128 87.8222 52.1877 87.8222 52.2724C87.8222 52.3505 87.8157 52.432 87.8027 52.5166H83.8063V51.7154H86.4934C86.4738 51.3962 86.3598 51.1455 86.1514 50.9631C85.9494 50.7807 85.6954 50.6895 85.3892 50.6895C85.1678 50.6895 84.9626 50.7416 84.7737 50.8458C84.5848 50.9435 84.4349 51.0966 84.3242 51.305C84.22 51.5135 84.1679 51.7773 84.1679 52.0965V52.3799C84.1679 52.6469 84.2167 52.8814 84.3144 53.0834C84.4187 53.2788 84.562 53.4319 84.7444 53.5426C84.9267 53.6468 85.1385 53.6989 85.3795 53.6989C85.6205 53.6989 85.8192 53.6468 85.9755 53.5426C86.1384 53.4384 86.2589 53.3048 86.337 53.142H87.6854C87.5942 53.4481 87.4411 53.725 87.2262 53.9725C87.0112 54.2201 86.7474 54.4155 86.4347 54.5588C86.1221 54.7021 85.7736 54.7737 85.3892 54.7737ZM88.9025 54.6565V49.7319H90.0653L90.163 50.5331C90.3128 50.2595 90.5245 50.0381 90.7981 49.8687C91.0782 49.6993 91.4104 49.6147 91.7947 49.6147C92.2051 49.6147 92.5504 49.6993 92.8305 49.8687C93.1106 50.0381 93.3223 50.2856 93.4656 50.6113C93.6154 50.937 93.6903 51.3376 93.6903 51.8131V54.6565H92.381V51.9402C92.381 51.5493 92.2963 51.2497 92.127 51.0412C91.9641 50.8328 91.7101 50.7286 91.3648 50.7286C91.1433 50.7286 90.9447 50.7807 90.7688 50.8849C90.5994 50.9891 90.4659 51.1389 90.3682 51.3344C90.2705 51.5233 90.2216 51.7545 90.2216 52.0281V54.6565H88.9025ZM97.1218 54.7737C96.6723 54.7737 96.2684 54.663 95.9102 54.4415C95.5584 54.2201 95.2816 53.9139 95.0796 53.5231C94.8777 53.1322 94.7767 52.6925 94.7767 52.204C94.7767 51.7024 94.8777 51.2594 95.0796 50.8751C95.2881 50.4843 95.5714 50.1781 95.9297 49.9566C96.2945 49.7287 96.7016 49.6147 97.1511 49.6147C97.5028 49.6147 97.8122 49.6798 98.0793 49.8101C98.3464 49.9404 98.5614 50.126 98.7242 50.367V47.6214H100.043V54.6565H98.8708L98.7242 53.9823C98.6265 54.1191 98.5027 54.2494 98.3529 54.3731C98.2096 54.4969 98.037 54.5946 97.835 54.6663C97.6331 54.7379 97.3953 54.7737 97.1218 54.7737ZM97.4344 53.6208C97.695 53.6208 97.923 53.5621 98.1184 53.4449C98.3203 53.3211 98.4767 53.1518 98.5874 52.9368C98.6981 52.7218 98.7535 52.4743 98.7535 52.1942C98.7535 51.9141 98.6981 51.6666 98.5874 51.4516C98.4767 51.2366 98.3203 51.0705 98.1184 50.9533C97.923 50.8295 97.695 50.7676 97.4344 50.7676C97.1869 50.7676 96.9622 50.8295 96.7602 50.9533C96.5583 51.0705 96.3987 51.2366 96.2815 51.4516C96.1707 51.6666 96.1153 51.9108 96.1153 52.1844C96.1153 52.471 96.1707 52.7218 96.2815 52.9368C96.3987 53.1518 96.555 53.3211 96.7505 53.4449C96.9524 53.5621 97.1804 53.6208 97.4344 53.6208ZM103.349 54.7737C102.899 54.7737 102.508 54.7021 102.176 54.5588C101.844 54.4155 101.583 54.2168 101.394 53.9628C101.205 53.7087 101.098 53.4221 101.072 53.1029H102.381C102.414 53.2267 102.469 53.3407 102.547 53.4449C102.626 53.5426 102.73 53.6208 102.86 53.6794C102.99 53.738 103.147 53.7673 103.329 53.7673C103.505 53.7673 103.648 53.7445 103.759 53.6989C103.87 53.6468 103.951 53.5784 104.003 53.4937C104.062 53.4091 104.091 53.3211 104.091 53.2299C104.091 53.0931 104.052 52.9889 103.974 52.9173C103.896 52.8391 103.782 52.7772 103.632 52.7316C103.482 52.686 103.3 52.6404 103.085 52.5948C102.85 52.5492 102.619 52.4938 102.391 52.4287C102.17 52.3571 101.971 52.2691 101.795 52.1649C101.619 52.0607 101.479 51.9271 101.375 51.7643C101.271 51.6014 101.218 51.3995 101.218 51.1585C101.218 50.8653 101.297 50.6048 101.453 50.3768C101.609 50.1423 101.837 49.9566 102.137 49.8199C102.437 49.6831 102.798 49.6147 103.222 49.6147C103.814 49.6147 104.283 49.7482 104.629 50.0153C104.974 50.2823 105.179 50.6504 105.244 51.1194H104.003C103.964 50.9696 103.876 50.8523 103.739 50.7676C103.609 50.6764 103.433 50.6308 103.212 50.6308C102.977 50.6308 102.798 50.6732 102.674 50.7579C102.551 50.8426 102.489 50.9533 102.489 51.0901C102.489 51.1813 102.528 51.2627 102.606 51.3344C102.691 51.406 102.808 51.4679 102.958 51.52C103.108 51.5656 103.29 51.6112 103.505 51.6568C103.883 51.735 104.215 51.8262 104.502 51.9304C104.788 52.0281 105.013 52.1714 105.176 52.3603C105.339 52.5427 105.42 52.8098 105.42 53.1615C105.42 53.4742 105.335 53.7543 105.166 54.0018C104.997 54.2429 104.756 54.4318 104.443 54.5686C104.137 54.7053 103.772 54.7737 103.349 54.7737ZM108.865 54.6565V47.8168H111.415C111.969 47.8168 112.425 47.9113 112.783 48.1002C113.141 48.2891 113.409 48.5431 113.584 48.8623C113.76 49.175 113.848 49.5235 113.848 49.9078C113.848 50.2726 113.764 50.6146 113.594 50.9337C113.425 51.2464 113.158 51.5005 112.793 51.6959C112.435 51.8848 111.972 51.9792 111.405 51.9792H110.184V54.6565H108.865ZM112.412 54.6565L111.005 51.647H112.431L113.917 54.6565H112.412ZM110.184 51.0217H111.337C111.734 51.0217 112.028 50.924 112.216 50.7286C112.405 50.5331 112.5 50.2758 112.5 49.9566C112.5 49.6375 112.405 49.3867 112.216 49.2043C112.034 49.0154 111.741 48.9209 111.337 48.9209H110.184V51.0217ZM117.069 54.7737C116.574 54.7737 116.134 54.6695 115.75 54.4611C115.372 54.2461 115.075 53.9497 114.86 53.5719C114.652 53.1876 114.548 52.7446 114.548 52.2431C114.548 51.7285 114.652 51.2757 114.86 50.8849C115.075 50.4875 115.372 50.1781 115.75 49.9566C116.127 49.7287 116.567 49.6147 117.069 49.6147C117.557 49.6147 117.984 49.7221 118.349 49.9371C118.713 50.1521 118.997 50.4419 119.199 50.8067C119.401 51.1715 119.502 51.5851 119.502 52.0476C119.502 52.1128 119.502 52.1877 119.502 52.2724C119.502 52.3505 119.495 52.432 119.482 52.5166H115.486V51.7154H118.173C118.153 51.3962 118.039 51.1455 117.831 50.9631C117.629 50.7807 117.375 50.6895 117.069 50.6895C116.847 50.6895 116.642 50.7416 116.453 50.8458C116.264 50.9435 116.114 51.0966 116.004 51.305C115.899 51.5135 115.847 51.7773 115.847 52.0965V52.3799C115.847 52.6469 115.896 52.8814 115.994 53.0834C116.098 53.2788 116.241 53.4319 116.424 53.5426C116.606 53.6468 116.818 53.6989 117.059 53.6989C117.3 53.6989 117.499 53.6468 117.655 53.5426C117.818 53.4384 117.938 53.3048 118.016 53.142H119.365C119.274 53.4481 119.121 53.725 118.906 53.9725C118.691 54.2201 118.427 54.4155 118.114 54.5588C117.801 54.7021 117.453 54.7737 117.069 54.7737ZM122.243 54.7737C121.833 54.7737 121.494 54.7086 121.227 54.5783C120.96 54.4415 120.761 54.2624 120.631 54.0409C120.507 53.8129 120.445 53.5621 120.445 53.2886C120.445 52.9889 120.52 52.7251 120.67 52.4971C120.826 52.2691 121.057 52.09 121.364 51.9597C121.676 51.8294 122.067 51.7643 122.536 51.7643H123.757C123.757 51.5233 123.725 51.3246 123.66 51.1682C123.595 51.0054 123.494 50.8849 123.357 50.8067C123.22 50.7286 123.038 50.6895 122.81 50.6895C122.562 50.6895 122.35 50.7448 122.175 50.8556C122.005 50.9598 121.901 51.1227 121.862 51.3441H120.582C120.614 50.9924 120.728 50.6895 120.924 50.4354C121.126 50.1749 121.39 49.9729 121.715 49.8296C122.048 49.6863 122.416 49.6147 122.819 49.6147C123.282 49.6147 123.683 49.6928 124.021 49.8492C124.36 50.0055 124.621 50.2302 124.803 50.5234C124.985 50.8165 125.077 51.178 125.077 51.6079V54.6565H123.963L123.816 53.9041C123.744 54.0344 123.66 54.1517 123.562 54.2559C123.464 54.3601 123.35 54.4513 123.22 54.5295C123.09 54.6076 122.943 54.6663 122.78 54.7053C122.618 54.7509 122.438 54.7737 122.243 54.7737ZM122.556 53.7576C122.725 53.7576 122.875 53.7282 123.005 53.6696C123.142 53.6045 123.259 53.5198 123.357 53.4156C123.455 53.3048 123.529 53.1811 123.582 53.0443C123.64 52.901 123.679 52.7479 123.699 52.585V52.5753H122.692C122.491 52.5753 122.324 52.6013 122.194 52.6534C122.07 52.699 121.979 52.7674 121.921 52.8586C121.862 52.9498 121.833 53.0541 121.833 53.1713C121.833 53.3016 121.862 53.4091 121.921 53.4937C121.979 53.5784 122.064 53.6436 122.175 53.6892C122.285 53.7348 122.412 53.7576 122.556 53.7576ZM128.691 54.7737C128.196 54.7737 127.756 54.663 127.372 54.4415C126.988 54.2201 126.688 53.9172 126.473 53.5328C126.258 53.1485 126.151 52.7088 126.151 52.2137C126.151 51.7057 126.258 51.2594 126.473 50.8751C126.688 50.4843 126.988 50.1781 127.372 49.9566C127.756 49.7287 128.196 49.6147 128.691 49.6147C129.323 49.6147 129.854 49.7808 130.284 50.113C130.714 50.4452 130.987 50.9012 131.105 51.4809H129.707C129.649 51.2529 129.525 51.0738 129.336 50.9435C129.154 50.8132 128.935 50.7481 128.681 50.7481C128.453 50.7481 128.248 50.8067 128.066 50.924C127.89 51.0347 127.75 51.2008 127.646 51.4223C127.548 51.6373 127.499 51.8946 127.499 52.1942C127.499 52.4222 127.528 52.6274 127.587 52.8098C127.646 52.9857 127.727 53.1387 127.831 53.269C127.936 53.3928 128.059 53.4872 128.203 53.5524C128.352 53.6175 128.512 53.6501 128.681 53.6501C128.851 53.6501 129.004 53.6208 129.141 53.5621C129.284 53.5035 129.405 53.4221 129.502 53.3179C129.6 53.2071 129.668 53.0736 129.707 52.9173H131.105C130.987 53.484 130.711 53.9367 130.274 54.2754C129.844 54.6076 129.317 54.7737 128.691 54.7737ZM134.403 54.6565C134.058 54.6565 133.755 54.6044 133.494 54.5002C133.24 54.3894 133.042 54.2103 132.898 53.9628C132.755 53.7087 132.683 53.3635 132.683 52.927V50.836H131.843V49.7319H132.683L132.83 48.3933H134.002V49.7319H135.302V50.836H134.002V52.9466C134.002 53.168 134.051 53.3211 134.149 53.4058C134.247 53.4905 134.413 53.5328 134.647 53.5328H135.292V54.6565H134.403ZM138.653 54.7737C138.158 54.7737 137.718 54.6695 137.334 54.4611C136.956 54.2461 136.659 53.9497 136.444 53.5719C136.236 53.1876 136.132 52.7446 136.132 52.2431C136.132 51.7285 136.236 51.2757 136.444 50.8849C136.659 50.4875 136.956 50.1781 137.334 49.9566C137.711 49.7287 138.151 49.6147 138.653 49.6147C139.141 49.6147 139.568 49.7221 139.933 49.9371C140.297 50.1521 140.581 50.4419 140.783 50.8067C140.985 51.1715 141.086 51.5851 141.086 52.0476C141.086 52.1128 141.086 52.1877 141.086 52.2724C141.086 52.3505 141.079 52.432 141.066 52.5166H137.07V51.7154H139.757C139.737 51.3962 139.623 51.1455 139.415 50.9631C139.213 50.7807 138.959 50.6895 138.653 50.6895C138.431 50.6895 138.226 50.7416 138.037 50.8458C137.848 50.9435 137.698 51.0966 137.588 51.305C137.483 51.5135 137.431 51.7773 137.431 52.0965V52.3799C137.431 52.6469 137.48 52.8814 137.578 53.0834C137.682 53.2788 137.825 53.4319 138.008 53.5426C138.19 53.6468 138.402 53.6989 138.643 53.6989C138.884 53.6989 139.083 53.6468 139.239 53.5426C139.402 53.4384 139.522 53.3048 139.6 53.142H140.949C140.858 53.4481 140.705 53.725 140.49 53.9725C140.275 54.2201 140.011 54.4155 139.698 54.5588C139.385 54.7021 139.037 54.7737 138.653 54.7737ZM144.355 54.7737C143.905 54.7737 143.501 54.663 143.143 54.4415C142.791 54.2201 142.514 53.9139 142.312 53.5231C142.111 53.1322 142.01 52.6925 142.01 52.204C142.01 51.7024 142.111 51.2594 142.312 50.8751C142.521 50.4843 142.804 50.1781 143.163 49.9566C143.527 49.7287 143.934 49.6147 144.384 49.6147C144.736 49.6147 145.045 49.6798 145.312 49.8101C145.579 49.9404 145.794 50.126 145.957 50.367V47.6214H147.276V54.6565H146.104L145.957 53.9823C145.859 54.1191 145.736 54.2494 145.586 54.3731C145.442 54.4969 145.27 54.5946 145.068 54.6663C144.866 54.7379 144.628 54.7737 144.355 54.7737ZM144.667 53.6208C144.928 53.6208 145.156 53.5621 145.351 53.4449C145.553 53.3211 145.709 53.1518 145.82 52.9368C145.931 52.7218 145.986 52.4743 145.986 52.1942C145.986 51.9141 145.931 51.6666 145.82 51.4516C145.709 51.2366 145.553 51.0705 145.351 50.9533C145.156 50.8295 144.928 50.7676 144.667 50.7676C144.42 50.7676 144.195 50.8295 143.993 50.9533C143.791 51.0705 143.632 51.2366 143.514 51.4516C143.404 51.6666 143.348 51.9108 143.348 52.1844C143.348 52.471 143.404 52.7218 143.514 52.9368C143.632 53.1518 143.788 53.3211 143.983 53.4449C144.185 53.5621 144.413 53.6208 144.667 53.6208Z" fill="#FAFAFA"/>
<path d="M70.271 71.313C70.271 68.6148 72.4583 66.4275 75.1565 66.4275H285.844C288.542 66.4275 290.729 68.6148 290.729 71.313V151.924C290.729 154.622 288.542 156.809 285.844 156.809H75.1565C72.4583 156.809 70.271 154.622 70.271 151.924V71.313Z" fill="#161616"/>
<g clip-path="url(#clip1_537_2881)">
<path d="M87.3398 80.401C87.8459 79.3987 88.0026 78.4441 87.3984 77.4281C86.6444 76.1599 85.6482 76.9055 85.7026 77.4605C85.9736 80.2475 84.4507 81.5698 84.0311 82.2847C83.8062 82.6683 82.1812 82.5452 82.1812 82.5452C82.1812 82.5452 81.1921 85.0031 82.1812 87.1802C83.1229 87.0218 83.9578 87.041 84.0311 87.084C85.9215 88.1926 88.3408 87.6803 88.3408 87.6803L88.9059 82.1128C88.9059 82.1128 86.5858 81.8922 87.3398 80.401Z" fill="url(#paint0_radial_537_2881)"/>
<path d="M87.2741 87.6497C87.1838 87.6532 85.3722 87.7393 84.1031 86.961C84.0754 86.9442 83.606 86.8148 82.2674 87.0213C81.4901 85.1896 82.1172 83.1549 82.2783 82.6946C83.514 82.7706 83.8789 82.6755 84.1539 82.3572C85.0688 81.299 86.0714 79.7797 85.8445 77.4465C85.8035 77.0234 86.6037 76.3707 87.2758 77.5009C87.7877 78.362 87.7682 79.2364 87.2125 80.3362C86.7483 81.2536 87.3287 81.8051 88.0783 82.0698C88.1413 81.9896 88.2069 81.9118 88.271 81.8324C87.6449 81.6337 87.1233 81.1454 87.467 80.4656C88.072 79.2681 88.0888 78.3089 87.521 77.3543C86.6821 75.9438 85.4901 76.7545 85.5606 77.4744C85.7768 79.6967 84.8909 81.0545 83.9079 82.2122C83.7069 82.4496 82.6474 82.441 82.0878 82.3948C82.0878 82.3948 80.914 85.1221 82.0964 87.3391C83.3361 87.1322 83.9407 87.2081 83.9705 87.2143C85.521 88.0898 87.3537 87.9347 87.5109 87.9247C87.434 87.8312 87.355 87.7396 87.2741 87.6497Z" fill="#D9A640"/>
<path d="M87.5803 84.1993L87.6566 84.4969C87.2891 85.2262 85.6022 85.8995 84.2255 85.2226C85.5374 85.6909 87.2658 84.9182 87.5803 84.1993Z" fill="#D9A640"/>
<path d="M89.4418 87.9099C88.9432 88.0262 88.1294 88.0628 87.7134 88.0006C87.3981 87.9536 87.1304 87.8223 86.9958 87.7031C86.6298 87.3788 86.5672 86.3973 87.5848 86.3973C88.3474 86.3973 88.6993 86.3973 89.5002 86.3973C90.3769 86.3973 90.1836 87.7374 89.4418 87.9099Z" fill="#D9A640"/>
<path d="M89.3215 87.6449C88.979 87.7125 88.0635 87.7731 87.7423 87.7172C87.5399 87.6821 87.3 87.6023 87.2131 87.5252C86.9773 87.3165 86.9078 86.6833 87.5639 86.6833C88.0559 86.6833 88.9534 86.6833 89.47 86.6833C90.0353 86.6833 89.821 87.5466 89.3215 87.6449Z" fill="url(#paint1_linear_537_2881)"/>
<path d="M89.5141 86.6851C88.177 86.6851 88.407 86.6851 87.3601 86.6851C86.2083 86.6851 86.2083 84.912 87.3601 84.912C88.3896 84.912 88.4343 84.912 89.5141 84.912C90.665 84.912 90.665 86.6851 89.5141 86.6851Z" fill="#D9A640"/>
<path d="M89.5347 86.4153C88.6044 86.4153 88.0694 86.4153 87.342 86.4153C86.5689 86.4153 86.5689 85.1819 87.342 85.1819C88.0576 85.1819 88.7838 85.1819 89.5347 85.1819C90.3126 85.1819 90.3126 86.4153 89.5347 86.4153Z" fill="url(#paint2_linear_537_2881)"/>
<path d="M89.9077 83.6063C88.7422 83.6063 88.2829 83.6063 87.3712 83.6063C86.5703 83.6063 86.5348 82.5684 87.0264 82.1054C87.1569 81.9827 87.5235 81.8266 87.8621 81.7674C88.3909 81.6739 89.3485 81.656 90.0056 81.8069C90.9998 82.0354 90.9708 83.6063 89.9077 83.6063Z" fill="#D9A640"/>
<path d="M89.9106 83.3201C89.0948 83.3201 88.0179 83.3201 87.3797 83.3201C86.8188 83.3201 86.9238 82.4855 87.2925 82.2693C87.4316 82.188 87.6917 82.0829 88.0129 82.0323C88.3499 81.9794 89.2416 81.9361 89.9253 82.0819C90.6192 82.2298 90.6549 83.3201 89.9106 83.3201Z" fill="url(#paint3_linear_537_2881)"/>
<path d="M89.8066 85.1979C88.3902 85.1979 88.4431 85.1979 87.3347 85.1979C86.1144 85.1979 86.1144 83.3197 87.3347 83.3197C88.4249 83.3197 88.6623 83.3197 89.8066 83.3197C91.0263 83.3197 91.0263 85.1979 89.8066 85.1979Z" fill="#D9A640"/>
<path d="M89.8279 84.9121C88.8432 84.9121 88.0857 84.9121 87.3149 84.9121C86.4964 84.9121 86.4964 83.606 87.3149 83.606C88.0731 83.606 89.0325 83.606 89.8279 83.606C90.6521 83.606 90.6521 84.9121 89.8279 84.9121Z" fill="url(#paint4_linear_537_2881)"/>
</g>
<path d="M98.1586 85.2412C97.9648 85.2412 97.8081 85.1814 97.6884 85.0617C97.5687 84.942 97.5089 84.7995 97.5089 84.6342C97.5089 84.4575 97.5687 84.3093 97.6884 84.1896C97.8081 84.0699 97.9648 84.0101 98.1586 84.0101C98.3467 84.0101 98.5006 84.0699 98.6203 84.1896C98.74 84.3093 98.7999 84.4575 98.7999 84.6342C98.7999 84.7995 98.74 84.942 98.6203 85.0617C98.5006 85.1814 98.3467 85.2412 98.1586 85.2412ZM98.1586 82.0095C97.9648 82.0095 97.8081 81.9496 97.6884 81.8299C97.5687 81.7102 97.5089 81.5677 97.5089 81.4025C97.5089 81.2258 97.5687 81.0776 97.6884 80.9579C97.8081 80.8382 97.9648 80.7783 98.1586 80.7783C98.3467 80.7783 98.5006 80.8382 98.6203 80.9579C98.74 81.0776 98.7999 81.2258 98.7999 81.4025C98.7999 81.5677 98.74 81.7102 98.6203 81.8299C98.5006 81.9496 98.3467 82.0095 98.1586 82.0095ZM101.754 85.1985C101.463 85.1985 101.21 85.1529 100.993 85.0617C100.782 84.9705 100.617 84.8195 100.497 84.6086C100.378 84.3977 100.318 84.1127 100.318 83.7536V81.753H99.5825V80.8895H100.318L100.437 79.7524H101.344V80.8895H102.515V81.753H101.344V83.7536C101.344 83.9702 101.389 84.1212 101.481 84.2067C101.577 84.2865 101.737 84.3264 101.959 84.3264H102.489V85.1985H101.754ZM103.602 85.1985V79.0428H104.628V81.5563C104.771 81.3227 104.965 81.1374 105.21 81.0006C105.455 80.8581 105.731 80.7869 106.039 80.7869C106.392 80.7869 106.692 80.861 106.937 81.0092C107.182 81.1517 107.367 81.3654 107.492 81.6504C107.624 81.9297 107.689 82.2802 107.689 82.702V85.1985H106.672V82.796C106.672 82.4256 106.592 82.1434 106.432 81.9496C106.278 81.7558 106.042 81.6589 105.723 81.6589C105.518 81.6589 105.332 81.7102 105.167 81.8128C105.002 81.9097 104.871 82.0522 104.774 82.2403C104.677 82.4227 104.628 82.6478 104.628 82.9157V85.1985H103.602ZM110.5 85.3011C110.152 85.3011 109.853 85.2327 109.602 85.0959C109.357 84.9534 109.169 84.7425 109.038 84.4632C108.907 84.1782 108.841 83.8277 108.841 83.4116V80.8895H109.867V83.309C109.867 83.6795 109.944 83.9616 110.098 84.1554C110.258 84.3435 110.497 84.4376 110.816 84.4376C111.021 84.4376 111.204 84.3891 111.363 84.2922C111.529 84.1953 111.657 84.0557 111.748 83.8733C111.845 83.6852 111.893 83.4572 111.893 83.1893V80.8895H112.919V85.1985H112.013L111.936 84.4803C111.805 84.7311 111.614 84.9306 111.363 85.0788C111.118 85.227 110.83 85.3011 110.5 85.3011ZM114.183 85.1985V80.8895H115.089L115.175 81.4794C115.312 81.2628 115.491 81.0947 115.713 80.975C115.941 80.8496 116.201 80.7869 116.491 80.7869C116.708 80.7869 116.902 80.8154 117.073 80.8724C117.25 80.9294 117.403 81.0149 117.535 81.1289C117.671 81.2429 117.782 81.3854 117.868 81.5563C118.028 81.317 118.236 81.1289 118.492 80.9921C118.749 80.8553 119.028 80.7869 119.33 80.7869C119.689 80.7869 119.994 80.861 120.245 81.0092C120.496 81.1517 120.686 81.3654 120.818 81.6504C120.949 81.9297 121.014 82.2745 121.014 82.6849V85.1985H119.997V82.7875C119.997 82.4227 119.923 82.1434 119.775 81.9496C119.626 81.7558 119.407 81.6589 119.116 81.6589C118.917 81.6589 118.74 81.7074 118.586 81.8043C118.438 81.9012 118.321 82.0437 118.236 82.2318C118.15 82.4142 118.107 82.6393 118.107 82.9072V85.1985H117.09V82.7875C117.09 82.4227 117.016 82.1434 116.868 81.9496C116.719 81.7558 116.497 81.6589 116.201 81.6589C116.013 81.6589 115.842 81.7074 115.688 81.8043C115.54 81.9012 115.423 82.0437 115.337 82.2318C115.252 82.4142 115.209 82.6393 115.209 82.9072V85.1985H114.183ZM124.683 85.3011C124.455 85.3011 124.249 85.2697 124.067 85.207C123.885 85.15 123.725 85.0702 123.588 84.9676C123.451 84.8594 123.337 84.7368 123.246 84.6L123.135 85.1985H122.22V79.0428H123.246V81.5222C123.383 81.3113 123.568 81.1374 123.802 81.0006C124.036 80.8581 124.326 80.7869 124.674 80.7869C125.079 80.7869 125.435 80.8866 125.743 81.0861C126.056 81.2799 126.301 81.5478 126.478 81.8898C126.66 82.2261 126.752 82.6137 126.752 83.0525C126.752 83.48 126.663 83.8647 126.487 84.2067C126.31 84.5487 126.065 84.8166 125.751 85.0104C125.443 85.2042 125.087 85.3011 124.683 85.3011ZM124.469 84.4119C124.708 84.4119 124.922 84.3549 125.11 84.2409C125.298 84.1212 125.443 83.9616 125.546 83.7622C125.654 83.557 125.709 83.3176 125.709 83.044C125.709 82.7761 125.654 82.5396 125.546 82.3344C125.443 82.1292 125.298 81.9696 125.11 81.8556C124.922 81.7416 124.708 81.6846 124.469 81.6846C124.224 81.6846 124.007 81.7416 123.819 81.8556C123.637 81.9696 123.491 82.1292 123.383 82.3344C123.28 82.5396 123.229 82.7761 123.229 83.044C123.229 83.3176 123.28 83.557 123.383 83.7622C123.491 83.9616 123.637 84.1212 123.819 84.2409C124.007 84.3549 124.224 84.4119 124.469 84.4119ZM129.588 85.3011C129.206 85.3011 128.873 85.2412 128.588 85.1215C128.308 84.9961 128.086 84.8252 127.921 84.6086C127.761 84.3863 127.667 84.1326 127.639 83.8476H128.665C128.693 83.9673 128.745 84.0785 128.819 84.1811C128.893 84.278 128.992 84.3549 129.118 84.4119C129.249 84.4689 129.403 84.4974 129.58 84.4974C129.751 84.4974 129.89 84.4746 129.998 84.429C130.107 84.3777 130.187 84.3122 130.238 84.2324C130.289 84.1526 130.315 84.0671 130.315 83.9759C130.315 83.8391 130.278 83.7337 130.204 83.6596C130.13 83.5855 130.021 83.5285 129.879 83.4886C129.742 83.443 129.577 83.4002 129.383 83.3603C129.178 83.3204 128.978 83.272 128.784 83.215C128.596 83.1523 128.425 83.0753 128.271 82.9841C128.123 82.8929 128.004 82.7761 127.912 82.6336C127.827 82.4911 127.784 82.3173 127.784 82.1121C127.784 81.8613 127.85 81.6361 127.981 81.4367C128.118 81.2372 128.311 81.0804 128.562 80.9664C128.819 80.8467 129.124 80.7869 129.477 80.7869C129.979 80.7869 130.377 80.9037 130.674 81.1374C130.976 81.3654 131.153 81.6874 131.204 82.1035H130.229C130.201 81.9439 130.121 81.8214 129.99 81.7359C129.859 81.6447 129.685 81.5991 129.468 81.5991C129.246 81.5991 129.075 81.6418 128.955 81.7273C128.841 81.8071 128.784 81.9154 128.784 82.0522C128.784 82.1377 128.819 82.2175 128.887 82.2916C128.961 82.36 129.067 82.4199 129.203 82.4712C129.34 82.5168 129.508 82.5624 129.708 82.608C130.027 82.6706 130.309 82.7447 130.554 82.8302C130.799 82.9157 130.993 83.0411 131.136 83.2064C131.278 83.3717 131.349 83.6054 131.349 83.9075C131.355 84.1811 131.284 84.4233 131.136 84.6342C130.993 84.8451 130.791 85.0104 130.529 85.1301C130.266 85.2441 129.953 85.3011 129.588 85.3011ZM132.535 83.1038V82.2489H136.075V83.1038H132.535ZM139.022 85.3011C138.674 85.3011 138.375 85.2327 138.124 85.0959C137.879 84.9534 137.691 84.7425 137.56 84.4632C137.429 84.1782 137.363 83.8277 137.363 83.4116V80.8895H138.389V83.309C138.389 83.6795 138.466 83.9616 138.62 84.1554C138.78 84.3435 139.019 84.4376 139.338 84.4376C139.544 84.4376 139.726 84.3891 139.886 84.2922C140.051 84.1953 140.179 84.0557 140.27 83.8733C140.367 83.6852 140.416 83.4572 140.416 83.1893V80.8895H141.442V85.1985H140.535L140.458 84.4803C140.327 84.7311 140.136 84.9306 139.886 85.0788C139.64 85.227 139.353 85.3011 139.022 85.3011ZM142.705 87.0794V80.8895H143.62L143.731 81.5136C143.822 81.3882 143.931 81.2714 144.056 81.1631C144.187 81.0491 144.344 80.9579 144.526 80.8895C144.714 80.8211 144.928 80.7869 145.168 80.7869C145.572 80.7869 145.928 80.8866 146.236 81.0861C146.55 81.2856 146.795 81.5563 146.971 81.8983C147.148 82.2346 147.237 82.6194 147.237 83.0525C147.237 83.4857 147.145 83.8733 146.963 84.2153C146.786 84.5516 146.541 84.8166 146.228 85.0104C145.92 85.2042 145.567 85.3011 145.168 85.3011C144.843 85.3011 144.558 85.2412 144.313 85.1215C144.073 84.9961 143.879 84.8195 143.731 84.5915V87.0794H142.705ZM144.954 84.4119C145.193 84.4119 145.407 84.3549 145.595 84.2409C145.783 84.1269 145.928 83.9673 146.031 83.7622C146.139 83.557 146.193 83.3204 146.193 83.0525C146.193 82.7789 146.139 82.5396 146.031 82.3344C145.928 82.1292 145.783 81.9696 145.595 81.8556C145.407 81.7416 145.193 81.6846 144.954 81.6846C144.709 81.6846 144.492 81.7416 144.304 81.8556C144.122 81.9696 143.976 82.1292 143.868 82.3344C143.765 82.5396 143.714 82.7761 143.714 83.044C143.714 83.3176 143.765 83.557 143.868 83.7622C143.976 83.9616 144.122 84.1212 144.304 84.2409C144.492 84.3549 144.709 84.4119 144.954 84.4119ZM148.799 85.2412C148.605 85.2412 148.449 85.1814 148.329 85.0617C148.209 84.942 148.149 84.7995 148.149 84.6342C148.149 84.4575 148.209 84.3093 148.329 84.1896C148.449 84.0699 148.605 84.0101 148.799 84.0101C148.987 84.0101 149.141 84.0699 149.261 84.1896C149.381 84.3093 149.44 84.4575 149.44 84.6342C149.44 84.7995 149.381 84.942 149.261 85.0617C149.141 85.1814 148.987 85.2412 148.799 85.2412ZM148.799 82.0095C148.605 82.0095 148.449 81.9496 148.329 81.8299C148.209 81.7102 148.149 81.5677 148.149 81.4025C148.149 81.2258 148.209 81.0776 148.329 80.9579C148.449 80.8382 148.605 80.7783 148.799 80.7783C148.987 80.7783 149.141 80.8382 149.261 80.9579C149.381 81.0776 149.44 81.2258 149.44 81.4025C149.44 81.5677 149.381 81.7102 149.261 81.8299C149.141 81.9496 148.987 82.0095 148.799 82.0095Z" fill="#FAFAFA"/>
<line x1="80.0419" y1="97.8779" x2="280.958" y2="97.8779" stroke="#27272A" stroke-width="0.610687"/>
<path d="M80.0419 115.282C80.0419 111.235 83.3229 107.954 87.3702 107.954V107.954C91.4175 107.954 94.6984 111.235 94.6984 115.282V115.282C94.6984 119.33 91.4175 122.611 87.3702 122.611V122.611C83.3229 122.611 80.0419 119.33 80.0419 115.282V115.282Z" fill="url(#paint5_linear_537_2881)"/>
<path d="M100.191 117.954V111.969H102.337C102.81 111.969 103.2 112.052 103.508 112.217C103.822 112.377 104.053 112.594 104.201 112.867C104.355 113.135 104.432 113.44 104.432 113.782C104.432 114.101 104.358 114.398 104.209 114.671C104.061 114.945 103.83 115.164 103.517 115.329C103.203 115.495 102.801 115.577 102.311 115.577H101.217V117.954H100.191ZM103.312 117.954L102.055 115.312H103.166L104.483 117.954H103.312ZM101.217 114.817H102.269C102.65 114.817 102.93 114.725 103.106 114.543C103.289 114.355 103.38 114.11 103.38 113.808C103.38 113.511 103.292 113.275 103.115 113.098C102.938 112.916 102.656 112.824 102.269 112.824H101.217V114.817ZM106.867 118.057C106.513 118.057 106.22 117.997 105.986 117.877C105.752 117.758 105.579 117.598 105.465 117.398C105.351 117.199 105.294 116.982 105.294 116.749C105.294 116.475 105.362 116.239 105.499 116.039C105.641 115.84 105.849 115.686 106.123 115.577C106.397 115.463 106.733 115.406 107.132 115.406H108.218C108.218 115.178 108.186 114.99 108.124 114.842C108.061 114.688 107.964 114.574 107.833 114.5C107.702 114.426 107.534 114.389 107.328 114.389C107.095 114.389 106.895 114.443 106.73 114.551C106.565 114.654 106.462 114.814 106.422 115.03H105.413C105.448 114.722 105.55 114.46 105.721 114.244C105.892 114.021 106.117 113.85 106.397 113.731C106.682 113.605 106.992 113.543 107.328 113.543C107.733 113.543 108.078 113.614 108.363 113.756C108.648 113.893 108.865 114.093 109.013 114.355C109.167 114.611 109.244 114.922 109.244 115.287V117.954H108.371L108.269 117.262C108.212 117.376 108.138 117.481 108.047 117.578C107.961 117.675 107.861 117.76 107.747 117.835C107.633 117.903 107.502 117.957 107.354 117.997C107.212 118.037 107.049 118.057 106.867 118.057ZM107.098 117.245C107.263 117.245 107.408 117.216 107.534 117.159C107.665 117.096 107.776 117.011 107.867 116.903C107.964 116.789 108.038 116.663 108.089 116.526C108.141 116.39 108.175 116.244 108.192 116.09V116.073H107.243C107.043 116.073 106.878 116.099 106.747 116.15C106.616 116.196 106.522 116.264 106.465 116.355C106.408 116.447 106.379 116.552 106.379 116.672C106.379 116.791 106.408 116.894 106.465 116.98C106.522 117.065 106.605 117.131 106.713 117.176C106.821 117.222 106.949 117.245 107.098 117.245ZM110.842 119.835L111.893 117.475H111.637L109.918 113.645H111.038L112.321 116.569L113.535 113.645H114.62L111.927 119.835H110.842ZM115.485 117.954V113.645H116.391L116.477 114.235C116.614 114.019 116.793 113.85 117.015 113.731C117.243 113.605 117.503 113.543 117.793 113.543C118.01 113.543 118.204 113.571 118.375 113.628C118.552 113.685 118.705 113.771 118.837 113.885C118.973 113.999 119.084 114.141 119.17 114.312C119.33 114.073 119.538 113.885 119.794 113.748C120.051 113.611 120.33 113.543 120.632 113.543C120.991 113.543 121.296 113.617 121.547 113.765C121.798 113.907 121.988 114.121 122.12 114.406C122.251 114.685 122.316 115.03 122.316 115.441V117.954H121.299V115.543C121.299 115.178 121.225 114.899 121.077 114.705C120.928 114.512 120.709 114.415 120.418 114.415C120.219 114.415 120.042 114.463 119.888 114.56C119.74 114.657 119.623 114.799 119.538 114.988C119.452 115.17 119.409 115.395 119.409 115.663V117.954H118.392V115.543C118.392 115.178 118.318 114.899 118.17 114.705C118.021 114.512 117.799 114.415 117.503 114.415C117.315 114.415 117.144 114.463 116.99 114.56C116.842 114.657 116.725 114.799 116.639 114.988C116.554 115.17 116.511 115.395 116.511 115.663V117.954H115.485ZM125.531 118.057C125.121 118.057 124.751 117.963 124.42 117.775C124.095 117.581 123.839 117.316 123.651 116.98C123.468 116.638 123.377 116.247 123.377 115.808C123.377 115.358 123.471 114.965 123.659 114.628C123.847 114.286 124.104 114.021 124.429 113.833C124.759 113.64 125.13 113.543 125.54 113.543C125.95 113.543 126.318 113.64 126.643 113.833C126.973 114.021 127.23 114.284 127.412 114.62C127.6 114.956 127.694 115.349 127.694 115.8C127.694 116.25 127.6 116.643 127.412 116.98C127.224 117.316 126.965 117.581 126.634 117.775C126.309 117.963 125.942 118.057 125.531 118.057ZM125.531 117.176C125.737 117.176 125.922 117.125 126.087 117.022C126.258 116.92 126.395 116.766 126.498 116.561C126.6 116.355 126.651 116.102 126.651 115.8C126.651 115.498 126.6 115.247 126.498 115.047C126.401 114.842 126.267 114.688 126.096 114.586C125.93 114.483 125.745 114.432 125.54 114.432C125.34 114.432 125.155 114.483 124.984 114.586C124.813 114.688 124.676 114.842 124.574 115.047C124.471 115.247 124.42 115.498 124.42 115.8C124.42 116.102 124.471 116.355 124.574 116.561C124.676 116.766 124.81 116.92 124.976 117.022C125.147 117.125 125.332 117.176 125.531 117.176ZM128.821 117.954V113.645H129.727L129.804 114.363C129.935 114.113 130.123 113.913 130.368 113.765C130.614 113.617 130.904 113.543 131.24 113.543C131.588 113.543 131.885 113.617 132.13 113.765C132.375 113.907 132.563 114.118 132.694 114.398C132.831 114.677 132.899 115.025 132.899 115.441V117.954H131.873V115.535C131.873 115.176 131.793 114.899 131.634 114.705C131.474 114.512 131.238 114.415 130.924 114.415C130.719 114.415 130.534 114.463 130.368 114.56C130.209 114.657 130.081 114.799 129.984 114.988C129.892 115.17 129.847 115.392 129.847 115.654V117.954H128.821ZM136.018 118.057C135.619 118.057 135.263 117.96 134.949 117.766C134.636 117.572 134.391 117.304 134.214 116.962C134.043 116.62 133.958 116.233 133.958 115.8C133.958 115.367 134.046 114.982 134.223 114.646C134.399 114.304 134.644 114.036 134.958 113.842C135.277 113.642 135.636 113.543 136.035 113.543C136.36 113.543 136.642 113.605 136.882 113.731C137.127 113.85 137.32 114.021 137.463 114.244V111.798H138.489V117.954H137.565L137.463 117.33C137.372 117.455 137.261 117.575 137.129 117.689C136.998 117.797 136.842 117.886 136.659 117.954C136.477 118.023 136.263 118.057 136.018 118.057ZM136.232 117.168C136.477 117.168 136.693 117.111 136.882 116.997C137.07 116.877 137.215 116.715 137.318 116.509C137.42 116.304 137.471 116.068 137.471 115.8C137.471 115.532 137.42 115.295 137.318 115.09C137.215 114.885 137.07 114.725 136.882 114.611C136.693 114.497 136.477 114.44 136.232 114.44C135.998 114.44 135.787 114.497 135.599 114.611C135.411 114.725 135.263 114.885 135.155 115.09C135.052 115.295 135.001 115.532 135.001 115.8C135.001 116.068 135.052 116.304 135.155 116.509C135.263 116.715 135.411 116.877 135.599 116.997C135.787 117.111 135.998 117.168 136.232 117.168Z" fill="#FAFAFA"/>
<path d="M80.042 139.71C80.042 135.663 83.323 132.382 87.3702 132.382V132.382C91.4175 132.382 94.6985 135.663 94.6985 139.71V139.71C94.6985 143.757 91.4175 147.038 87.3702 147.038V147.038C83.323 147.038 80.042 143.757 80.042 139.71V139.71Z" fill="url(#paint6_linear_537_2881)"/>
<path d="M100.191 142.382V136.397H101.405L103.32 140.261L105.218 136.397H106.441V142.382H105.415V138.158L103.722 141.544H102.918L101.217 138.167V142.382H100.191ZM107.786 142.382V138.073H108.812V142.382H107.786ZM108.299 137.389C108.111 137.389 107.954 137.332 107.829 137.218C107.709 137.098 107.649 136.953 107.649 136.782C107.649 136.605 107.709 136.462 107.829 136.354C107.954 136.24 108.111 136.183 108.299 136.183C108.487 136.183 108.641 136.24 108.761 136.354C108.886 136.462 108.949 136.605 108.949 136.782C108.949 136.953 108.886 137.098 108.761 137.218C108.641 137.332 108.487 137.389 108.299 137.389ZM112.898 142.382L110.992 140.022L112.702 138.073H113.924L111.795 140.441V139.646L114.181 142.382H112.898ZM110.12 142.382V136.226H111.146V142.382H110.12ZM116.668 142.484C116.24 142.484 115.864 142.393 115.539 142.211C115.214 142.023 114.961 141.76 114.778 141.424C114.596 141.088 114.505 140.7 114.505 140.261C114.505 139.805 114.593 139.406 114.77 139.064C114.952 138.722 115.206 138.455 115.531 138.261C115.861 138.067 116.243 137.97 116.676 137.97C117.098 137.97 117.466 138.064 117.779 138.252C118.093 138.44 118.335 138.694 118.506 139.013C118.677 139.327 118.762 139.68 118.762 140.073C118.762 140.13 118.762 140.193 118.762 140.261C118.762 140.33 118.757 140.401 118.745 140.475H115.24V139.817H117.728C117.717 139.503 117.611 139.258 117.412 139.081C117.212 138.899 116.964 138.808 116.668 138.808C116.457 138.808 116.263 138.856 116.086 138.953C115.91 139.05 115.77 139.195 115.668 139.389C115.565 139.577 115.514 139.817 115.514 140.107V140.355C115.514 140.623 115.562 140.854 115.659 141.048C115.762 141.242 115.898 141.39 116.069 141.492C116.246 141.589 116.443 141.638 116.659 141.638C116.899 141.638 117.095 141.587 117.249 141.484C117.409 141.381 117.526 141.245 117.6 141.074H118.643C118.563 141.341 118.432 141.584 118.25 141.8C118.067 142.011 117.842 142.179 117.574 142.305C117.306 142.424 117.004 142.484 116.668 142.484Z" fill="#FAFAFA"/>
<path d="M70.271 171.466C70.271 168.767 72.4583 166.58 75.1565 166.58H285.844C288.542 166.58 290.729 168.767 290.729 171.466V227.649C290.729 230.347 288.542 232.534 285.844 232.534H75.1565C72.4583 232.534 70.271 230.347 70.271 227.649V171.466Z" fill="#161616"/>
<g clip-path="url(#clip2_537_2881)">
<path d="M87.34 184.362C87.8461 185.365 88.0028 186.319 87.3986 187.335C86.6446 188.603 85.6484 187.858 85.7028 187.303C85.9738 184.516 84.4507 183.194 84.0311 182.479C83.8062 182.095 82.1812 182.218 82.1812 182.218C82.1812 182.218 81.1921 179.76 82.1812 177.583C83.1229 177.742 83.9578 177.722 84.0311 177.679C85.9217 176.571 88.341 177.083 88.341 177.083L88.9061 182.651C88.9061 182.651 86.586 182.871 87.34 184.362Z" fill="url(#paint7_radial_537_2881)"/>
<path d="M87.2743 177.114C87.184 177.11 85.3724 177.024 84.1031 177.802C84.0754 177.819 83.606 177.949 82.2674 177.742C81.4901 179.574 82.1172 181.608 82.2783 182.069C83.514 181.993 83.8789 182.088 84.1539 182.406C85.069 183.464 86.0716 184.984 85.8447 187.317C85.8037 187.74 86.6039 188.393 87.276 187.262C87.7878 186.401 87.7684 185.527 87.2127 184.427C86.7485 183.51 87.3289 182.958 88.0785 182.694C88.1415 182.774 88.2071 182.852 88.2712 182.931C87.6451 183.13 87.1235 183.618 87.4672 184.298C88.0722 185.495 88.089 186.454 87.5212 187.409C86.6823 188.819 85.4903 188.009 85.5607 187.289C85.777 185.067 84.8909 183.709 83.9079 182.551C83.7069 182.314 82.6474 182.322 82.0878 182.369C82.0878 182.369 80.914 179.641 82.0964 177.424C83.3361 177.631 83.9407 177.555 83.9705 177.549C85.521 176.674 87.3539 176.829 87.5111 176.839C87.4342 176.932 87.3552 177.024 87.2743 177.114Z" fill="#D9A640"/>
<path d="M87.5805 180.564L87.6568 180.266C87.2893 179.537 85.6024 178.864 84.2255 179.541C85.5375 179.072 87.266 179.845 87.5805 180.564Z" fill="#D9A640"/>
<path d="M89.442 176.853C88.9433 176.737 88.1296 176.701 87.7136 176.763C87.3983 176.81 87.1306 176.941 86.996 177.06C86.63 177.385 86.5674 178.366 87.5849 178.366C88.3475 178.366 88.6995 178.366 89.5004 178.366C90.3771 178.366 90.1838 177.026 89.442 176.853Z" fill="#D9A640"/>
<path d="M89.3215 177.118C88.979 177.051 88.0635 176.99 87.7423 177.046C87.5399 177.081 87.3 177.161 87.2131 177.238C86.9773 177.447 86.9078 178.08 87.5639 178.08C88.0559 178.08 88.9534 178.08 89.47 178.08C90.0353 178.08 89.821 177.217 89.3215 177.118Z" fill="url(#paint8_linear_537_2881)"/>
<path d="M89.5143 178.078C88.1772 178.078 88.4072 178.078 87.3602 178.078C86.2085 178.078 86.2085 179.851 87.3602 179.851C88.3898 179.851 88.4345 179.851 89.5143 179.851C90.6652 179.851 90.6652 178.078 89.5143 178.078Z" fill="#D9A640"/>
<path d="M89.5347 178.348C88.6044 178.348 88.0694 178.348 87.342 178.348C86.5689 178.348 86.5689 179.581 87.342 179.581C88.0576 179.581 88.7838 179.581 89.5347 179.581C90.3126 179.581 90.3126 178.348 89.5347 178.348Z" fill="url(#paint9_linear_537_2881)"/>
<path d="M89.8068 179.565C88.3904 179.565 88.4432 179.565 87.3348 179.565C86.1146 179.565 86.1146 181.444 87.3348 181.444C88.4251 181.444 88.6625 181.444 89.8068 181.444C91.0265 181.444 91.0265 179.565 89.8068 179.565Z" fill="#D9A640"/>
<path d="M89.8281 179.851C88.8434 179.851 88.0859 179.851 87.3151 179.851C86.4966 179.851 86.4966 181.157 87.3151 181.157C88.0733 181.157 89.0327 181.157 89.8281 181.157C90.6523 181.157 90.6523 179.851 89.8281 179.851Z" fill="url(#paint10_linear_537_2881)"/>
</g>
<path d="M98.1586 185.394C97.9648 185.394 97.8081 185.334 97.6884 185.214C97.5687 185.095 97.5089 184.952 97.5089 184.787C97.5089 184.61 97.5687 184.462 97.6884 184.342C97.8081 184.223 97.9648 184.163 98.1586 184.163C98.3467 184.163 98.5006 184.223 98.6203 184.342C98.74 184.462 98.7999 184.61 98.7999 184.787C98.7999 184.952 98.74 185.095 98.6203 185.214C98.5006 185.334 98.3467 185.394 98.1586 185.394ZM98.1586 182.162C97.9648 182.162 97.8081 182.102 97.6884 181.983C97.5687 181.863 97.5089 181.72 97.5089 181.555C97.5089 181.378 97.5687 181.23 97.6884 181.111C97.8081 180.991 97.9648 180.931 98.1586 180.931C98.3467 180.931 98.5006 180.991 98.6203 181.111C98.74 181.23 98.7999 181.378 98.7999 181.555C98.7999 181.72 98.74 181.863 98.6203 181.983C98.5006 182.102 98.3467 182.162 98.1586 182.162ZM101.754 185.351C101.463 185.351 101.21 185.306 100.993 185.214C100.782 185.123 100.617 184.972 100.497 184.761C100.378 184.55 100.318 184.265 100.318 183.906V181.906H99.5825V181.042H100.318L100.437 179.905H101.344V181.042H102.515V181.906H101.344V183.906C101.344 184.123 101.389 184.274 101.481 184.359C101.577 184.439 101.737 184.479 101.959 184.479H102.489V185.351H101.754ZM103.602 185.351V179.195H104.628V181.709C104.771 181.475 104.965 181.29 105.21 181.153C105.455 181.011 105.731 180.94 106.039 180.94C106.392 180.94 106.692 181.014 106.937 181.162C107.182 181.304 107.367 181.518 107.492 181.803C107.624 182.082 107.689 182.433 107.689 182.855V185.351H106.672V182.949C106.672 182.578 106.592 182.296 106.432 182.102C106.278 181.908 106.042 181.812 105.723 181.812C105.518 181.812 105.332 181.863 105.167 181.965C105.002 182.062 104.871 182.205 104.774 182.393C104.677 182.575 104.628 182.8 104.628 183.068V185.351H103.602ZM110.5 185.454C110.152 185.454 109.853 185.385 109.602 185.249C109.357 185.106 109.169 184.895 109.038 184.616C108.907 184.331 108.841 183.98 108.841 183.564V181.042H109.867V183.462C109.867 183.832 109.944 184.114 110.098 184.308C110.258 184.496 110.497 184.59 110.816 184.59C111.021 184.59 111.204 184.542 111.363 184.445C111.529 184.348 111.657 184.208 111.748 184.026C111.845 183.838 111.893 183.61 111.893 183.342V181.042H112.919V185.351H112.013L111.936 184.633C111.805 184.884 111.614 185.083 111.363 185.231C111.118 185.38 110.83 185.454 110.5 185.454ZM114.183 185.351V181.042H115.089L115.175 181.632C115.312 181.415 115.491 181.247 115.713 181.128C115.941 181.002 116.201 180.94 116.491 180.94C116.708 180.94 116.902 180.968 117.073 181.025C117.25 181.082 117.403 181.168 117.535 181.282C117.671 181.396 117.782 181.538 117.868 181.709C118.028 181.47 118.236 181.282 118.492 181.145C118.749 181.008 119.028 180.94 119.33 180.94C119.689 180.94 119.994 181.014 120.245 181.162C120.496 181.304 120.686 181.518 120.818 181.803C120.949 182.082 121.014 182.427 121.014 182.838V185.351H119.997V182.94C119.997 182.575 119.923 182.296 119.775 182.102C119.626 181.908 119.407 181.812 119.116 181.812C118.917 181.812 118.74 181.86 118.586 181.957C118.438 182.054 118.321 182.196 118.236 182.384C118.15 182.567 118.107 182.792 118.107 183.06V185.351H117.09V182.94C117.09 182.575 117.016 182.296 116.868 182.102C116.719 181.908 116.497 181.812 116.201 181.812C116.013 181.812 115.842 181.86 115.688 181.957C115.54 182.054 115.423 182.196 115.337 182.384C115.252 182.567 115.209 182.792 115.209 183.06V185.351H114.183ZM124.683 185.454C124.455 185.454 124.249 185.422 124.067 185.36C123.885 185.303 123.725 185.223 123.588 185.12C123.451 185.012 123.337 184.889 123.246 184.753L123.135 185.351H122.22V179.195H123.246V181.675C123.383 181.464 123.568 181.29 123.802 181.153C124.036 181.011 124.326 180.94 124.674 180.94C125.079 180.94 125.435 181.039 125.743 181.239C126.056 181.433 126.301 181.7 126.478 182.042C126.66 182.379 126.752 182.766 126.752 183.205C126.752 183.633 126.663 184.017 126.487 184.359C126.31 184.701 126.065 184.969 125.751 185.163C125.443 185.357 125.087 185.454 124.683 185.454ZM124.469 184.565C124.708 184.565 124.922 184.508 125.11 184.394C125.298 184.274 125.443 184.114 125.546 183.915C125.654 183.71 125.709 183.47 125.709 183.197C125.709 182.929 125.654 182.692 125.546 182.487C125.443 182.282 125.298 182.122 125.11 182.008C124.922 181.894 124.708 181.837 124.469 181.837C124.224 181.837 124.007 181.894 123.819 182.008C123.637 182.122 123.491 182.282 123.383 182.487C123.28 182.692 123.229 182.929 123.229 183.197C123.229 183.47 123.28 183.71 123.383 183.915C123.491 184.114 123.637 184.274 123.819 184.394C124.007 184.508 124.224 184.565 124.469 184.565ZM129.588 185.454C129.206 185.454 128.873 185.394 128.588 185.274C128.308 185.149 128.086 184.978 127.921 184.761C127.761 184.539 127.667 184.285 127.639 184H128.665C128.693 184.12 128.745 184.231 128.819 184.334C128.893 184.431 128.992 184.508 129.118 184.565C129.249 184.622 129.403 184.65 129.58 184.65C129.751 184.65 129.89 184.627 129.998 184.582C130.107 184.53 130.187 184.465 130.238 184.385C130.289 184.305 130.315 184.22 130.315 184.129C130.315 183.992 130.278 183.886 130.204 183.812C130.13 183.738 130.021 183.681 129.879 183.641C129.742 183.596 129.577 183.553 129.383 183.513C129.178 183.473 128.978 183.425 128.784 183.368C128.596 183.305 128.425 183.228 128.271 183.137C128.123 183.046 128.004 182.929 127.912 182.786C127.827 182.644 127.784 182.47 127.784 182.265C127.784 182.014 127.85 181.789 127.981 181.589C128.118 181.39 128.311 181.233 128.562 181.119C128.819 180.999 129.124 180.94 129.477 180.94C129.979 180.94 130.377 181.056 130.674 181.29C130.976 181.518 131.153 181.84 131.204 182.256H130.229C130.201 182.097 130.121 181.974 129.99 181.889C129.859 181.797 129.685 181.752 129.468 181.752C129.246 181.752 129.075 181.794 128.955 181.88C128.841 181.96 128.784 182.068 128.784 182.205C128.784 182.29 128.819 182.37 128.887 182.444C128.961 182.513 129.067 182.573 129.203 182.624C129.34 182.669 129.508 182.715 129.708 182.761C130.027 182.823 130.309 182.897 130.554 182.983C130.799 183.068 130.993 183.194 131.136 183.359C131.278 183.524 131.349 183.758 131.349 184.06C131.355 184.334 131.284 184.576 131.136 184.787C130.993 184.998 130.791 185.163 130.529 185.283C130.266 185.397 129.953 185.454 129.588 185.454ZM132.535 183.256V182.402H136.075V183.256H132.535ZM139.338 185.454C138.939 185.454 138.583 185.357 138.27 185.163C137.956 184.969 137.711 184.701 137.534 184.359C137.363 184.017 137.278 183.63 137.278 183.197C137.278 182.763 137.366 182.379 137.543 182.042C137.72 181.7 137.965 181.433 138.278 181.239C138.597 181.039 138.957 180.94 139.355 180.94C139.68 180.94 139.963 181.002 140.202 181.128C140.447 181.247 140.641 181.418 140.783 181.641V179.195H141.809V185.351H140.886L140.783 184.727C140.692 184.852 140.581 184.972 140.45 185.086C140.319 185.194 140.162 185.283 139.98 185.351C139.797 185.42 139.583 185.454 139.338 185.454ZM139.552 184.565C139.797 184.565 140.014 184.508 140.202 184.394C140.39 184.274 140.535 184.111 140.638 183.906C140.741 183.701 140.792 183.465 140.792 183.197C140.792 182.929 140.741 182.692 140.638 182.487C140.535 182.282 140.39 182.122 140.202 182.008C140.014 181.894 139.797 181.837 139.552 181.837C139.318 181.837 139.108 181.894 138.919 182.008C138.731 182.122 138.583 182.282 138.475 182.487C138.372 182.692 138.321 182.929 138.321 183.197C138.321 183.465 138.372 183.701 138.475 183.906C138.583 184.111 138.731 184.274 138.919 184.394C139.108 184.508 139.318 184.565 139.552 184.565ZM145.082 185.454C144.671 185.454 144.301 185.36 143.97 185.172C143.645 184.978 143.389 184.713 143.201 184.376C143.018 184.034 142.927 183.644 142.927 183.205C142.927 182.755 143.021 182.362 143.209 182.025C143.397 181.683 143.654 181.418 143.979 181.23C144.309 181.036 144.68 180.94 145.09 180.94C145.501 180.94 145.868 181.036 146.193 181.23C146.524 181.418 146.78 181.68 146.963 182.017C147.151 182.353 147.245 182.746 147.245 183.197C147.245 183.647 147.151 184.04 146.963 184.376C146.775 184.713 146.515 184.978 146.185 185.172C145.86 185.36 145.492 185.454 145.082 185.454ZM145.082 184.573C145.287 184.573 145.472 184.522 145.637 184.419C145.808 184.317 145.945 184.163 146.048 183.958C146.15 183.752 146.202 183.499 146.202 183.197C146.202 182.895 146.15 182.644 146.048 182.444C145.951 182.239 145.817 182.085 145.646 181.983C145.481 181.88 145.296 181.829 145.09 181.829C144.891 181.829 144.706 181.88 144.535 181.983C144.364 182.085 144.227 182.239 144.124 182.444C144.022 182.644 143.97 182.895 143.97 183.197C143.97 183.499 144.022 183.752 144.124 183.958C144.227 184.163 144.361 184.317 144.526 184.419C144.697 184.522 144.882 184.573 145.082 184.573ZM149.076 185.351L147.811 181.042H148.828L149.709 184.582L149.521 184.573L150.504 181.042H151.649L152.641 184.573H152.453L153.334 181.042H154.351L153.086 185.351H152.026L150.974 181.7H151.188L150.136 185.351H149.076ZM155.206 185.351V181.042H156.112L156.189 181.76C156.32 181.51 156.509 181.31 156.754 181.162C156.999 181.014 157.289 180.94 157.626 180.94C157.973 180.94 158.27 181.014 158.515 181.162C158.76 181.304 158.948 181.515 159.079 181.794C159.216 182.074 159.284 182.421 159.284 182.838V185.351H158.258V182.932C158.258 182.573 158.179 182.296 158.019 182.102C157.859 181.908 157.623 181.812 157.309 181.812C157.104 181.812 156.919 181.86 156.754 181.957C156.594 182.054 156.466 182.196 156.369 182.384C156.278 182.567 156.232 182.789 156.232 183.051V185.351H155.206ZM160.933 185.394C160.739 185.394 160.582 185.334 160.463 185.214C160.343 185.095 160.283 184.952 160.283 184.787C160.283 184.61 160.343 184.462 160.463 184.342C160.582 184.223 160.739 184.163 160.933 184.163C161.121 184.163 161.275 184.223 161.394 184.342C161.514 184.462 161.574 184.61 161.574 184.787C161.574 184.952 161.514 185.095 161.394 185.214C161.275 185.334 161.121 185.394 160.933 185.394ZM160.933 182.162C160.739 182.162 160.582 182.102 160.463 181.983C160.343 181.863 160.283 181.72 160.283 181.555C160.283 181.378 160.343 181.23 160.463 181.111C160.582 180.991 160.739 180.931 160.933 180.931C161.121 180.931 161.275 180.991 161.394 181.111C161.514 181.23 161.574 181.378 161.574 181.555C161.574 181.72 161.514 181.863 161.394 181.983C161.275 182.102 161.121 182.162 160.933 182.162Z" fill="#FAFAFA"/>
</g>
<defs>
<radialGradient id="paint0_radial_537_2881" cx="0" cy="0" r="1" gradientUnits="userSpaceOnUse" gradientTransform="translate(85.252 80.643) scale(7.58446)">
<stop offset="0.4364" stop-color="#FFCC66"/>
<stop offset="0.6776" stop-color="#FECA64"/>
<stop offset="0.7849" stop-color="#FAC55D"/>
<stop offset="0.8654" stop-color="#F2BC50"/>
<stop offset="0.903" stop-color="#EDB547"/>
</radialGradient>
<linearGradient id="paint1_linear_537_2881" x1="87.3314" y1="87.2113" x2="90.0926" y2="87.2113" gradientUnits="userSpaceOnUse">
<stop offset="0.2545" stop-color="#EDB547"/>
<stop offset="0.4424" stop-color="#FFCC66"/>
</linearGradient>
<linearGradient id="paint2_linear_537_2881" x1="86.9212" y1="85.7985" x2="90.2773" y2="85.7985" gradientUnits="userSpaceOnUse">
<stop offset="0.2545" stop-color="#EDB547"/>
<stop offset="0.4424" stop-color="#FFCC66"/>
</linearGradient>
<linearGradient id="paint3_linear_537_2881" x1="87.0829" y1="82.6514" x2="90.5527" y2="82.6514" gradientUnits="userSpaceOnUse">
<stop offset="0.2545" stop-color="#EDB547"/>
<stop offset="0.4424" stop-color="#FFCC66"/>
</linearGradient>
<linearGradient id="paint4_linear_537_2881" x1="86.701" y1="84.259" x2="90.4459" y2="84.259" gradientUnits="userSpaceOnUse">
<stop offset="0.2545" stop-color="#EDB547"/>
<stop offset="0.4424" stop-color="#FFCC66"/>
</linearGradient>
<linearGradient id="paint5_linear_537_2881" x1="80.0419" y1="115.282" x2="94.6984" y2="115.282" gradientUnits="userSpaceOnUse">
<stop stop-color="#A855F7"/>
<stop offset="1" stop-color="#D946EF"/>
</linearGradient>
<linearGradient id="paint6_linear_537_2881" x1="80.042" y1="132.382" x2="95.2281" y2="132.953" gradientUnits="userSpaceOnUse">
<stop stop-color="#A855F7"/>
<stop offset="1" stop-color="#D6AAFF"/>
</linearGradient>
<radialGradient id="paint7_radial_537_2881" cx="0" cy="0" r="1" gradientUnits="userSpaceOnUse" gradientTransform="translate(85.2522 184.12) scale(7.58447)">
<stop offset="0.4364" stop-color="#FFCC66"/>
<stop offset="0.6776" stop-color="#FECA64"/>
<stop offset="0.7849" stop-color="#FAC55D"/>
<stop offset="0.8654" stop-color="#F2BC50"/>
<stop offset="0.903" stop-color="#EDB547"/>
</radialGradient>
<linearGradient id="paint8_linear_537_2881" x1="87.3314" y1="177.552" x2="90.0925" y2="177.552" gradientUnits="userSpaceOnUse">
<stop offset="0.2545" stop-color="#EDB547"/>
<stop offset="0.4424" stop-color="#FFCC66"/>
</linearGradient>
<linearGradient id="paint9_linear_537_2881" x1="86.9212" y1="178.965" x2="90.2772" y2="178.965" gradientUnits="userSpaceOnUse">
<stop offset="0.2545" stop-color="#EDB547"/>
<stop offset="0.4424" stop-color="#FFCC66"/>
</linearGradient>
<linearGradient id="paint10_linear_537_2881" x1="86.7013" y1="180.504" x2="90.4464" y2="180.504" gradientUnits="userSpaceOnUse">
<stop offset="0.2545" stop-color="#EDB547"/>
<stop offset="0.4424" stop-color="#FFCC66"/>
</linearGradient>
<clipPath id="clip0_537_2881">
<rect width="361" height="180" fill="white"/>
</clipPath>
<clipPath id="clip1_537_2881">
<rect width="12.2137" height="12.2137" fill="white" transform="translate(80.0419 76.1985)"/>
</clipPath>
<clipPath id="clip2_537_2881">
<rect width="12.2137" height="12.2137" fill="white" transform="translate(80.0419 176.351)"/>
</clipPath>
</defs>
</svg>
