<svg width="361" height="180" viewBox="0 0 361 180" fill="none" xmlns="http://www.w3.org/2000/svg">
<rect width="361" height="180" fill="url(#paint0_linear_426_6818)"/>
<path d="M125.754 97L127.854 85.14H123.754L124.134 83H135.014L134.634 85.14H130.534L128.454 97H125.754ZM137.664 97.24C136.744 97.24 135.951 97.0533 135.284 96.68C134.631 96.3067 134.131 95.78 133.784 95.1C133.451 94.42 133.311 93.6267 133.364 92.72C133.391 91.88 133.558 91.1 133.864 90.38C134.184 89.6467 134.618 89.0067 135.164 88.46C135.711 87.9 136.351 87.4667 137.084 87.16C137.818 86.84 138.631 86.68 139.524 86.68C140.431 86.68 141.204 86.8667 141.844 87.24C142.484 87.6133 142.964 88.12 143.284 88.76C143.604 89.4 143.744 90.14 143.704 90.98C143.704 91.26 143.671 91.5467 143.604 91.84C143.551 92.12 143.491 92.38 143.424 92.62H135.264L135.544 90.98H141.024C141.078 90.5267 141.031 90.1467 140.884 89.84C140.738 89.52 140.511 89.28 140.204 89.12C139.911 88.96 139.564 88.88 139.164 88.88C138.698 88.88 138.251 88.9867 137.824 89.2C137.411 89.4 137.058 89.7133 136.764 90.14C136.471 90.5667 136.264 91.1067 136.144 91.76L136.044 92.34C135.951 92.86 135.964 93.3267 136.084 93.74C136.218 94.14 136.451 94.46 136.784 94.7C137.118 94.9267 137.531 95.04 138.024 95.04C138.531 95.04 138.964 94.9333 139.324 94.72C139.684 94.5067 139.978 94.2333 140.204 93.9H142.964C142.658 94.5267 142.238 95.0933 141.704 95.6C141.184 96.1067 140.578 96.5067 139.884 96.8C139.204 97.0933 138.464 97.24 137.664 97.24ZM143.662 97L148.202 91.94L145.462 86.92H148.342L150.162 90.38L153.182 86.92H156.082L151.582 91.98L154.302 97H151.422L149.602 93.52L146.582 97H143.662ZM160.548 97C159.761 97 159.121 96.8733 158.628 96.62C158.148 96.3667 157.821 95.98 157.648 95.46C157.475 94.9267 157.461 94.26 157.608 93.46L158.368 89.18H156.688L157.088 86.92H158.768L159.548 84.18H161.968L161.468 86.92H164.128L163.728 89.18H161.068L160.308 93.48C160.228 93.9467 160.281 94.2667 160.468 94.44C160.655 94.6133 160.961 94.7 161.388 94.7H162.788L162.368 97H160.548ZM169.682 97L172.142 83H181.002L180.622 85.14H174.462L173.822 88.86H179.382L179.002 90.94H173.442L172.762 94.86H178.902L178.522 97H169.682ZM181.41 97L183.35 86.02C183.496 85.18 183.756 84.5133 184.13 84.02C184.503 83.5267 184.97 83.1667 185.53 82.94C186.09 82.7133 186.723 82.6 187.43 82.6H188.67L188.27 84.9H187.45C187.023 84.9 186.703 84.9867 186.49 85.16C186.276 85.32 186.13 85.6067 186.05 86.02L184.11 97H181.41ZM181.41 89.18L181.79 86.92H188.07L187.67 89.18H181.41ZM188.851 97L190.791 86.02C190.938 85.18 191.198 84.5133 191.571 84.02C191.945 83.5267 192.411 83.1667 192.971 82.94C193.531 82.7133 194.165 82.6 194.871 82.6H196.111L195.711 84.9H194.891C194.465 84.9 194.145 84.9867 193.931 85.16C193.718 85.32 193.571 85.6067 193.491 86.02L191.551 97H188.851ZM188.851 89.18L189.231 86.92H195.511L195.111 89.18H188.851ZM200.653 97.24C199.733 97.24 198.939 97.0533 198.273 96.68C197.619 96.3067 197.119 95.78 196.773 95.1C196.439 94.42 196.299 93.6267 196.353 92.72C196.379 91.88 196.546 91.1 196.853 90.38C197.173 89.6467 197.606 89.0067 198.153 88.46C198.699 87.9 199.339 87.4667 200.073 87.16C200.806 86.84 201.619 86.68 202.513 86.68C203.419 86.68 204.193 86.8667 204.833 87.24C205.473 87.6133 205.953 88.12 206.273 88.76C206.593 89.4 206.733 90.14 206.693 90.98C206.693 91.26 206.659 91.5467 206.593 91.84C206.539 92.12 206.479 92.38 206.413 92.62H198.253L198.533 90.98H204.013C204.066 90.5267 204.019 90.1467 203.873 89.84C203.726 89.52 203.499 89.28 203.193 89.12C202.899 88.96 202.553 88.88 202.153 88.88C201.686 88.88 201.239 88.9867 200.813 89.2C200.399 89.4 200.046 89.7133 199.753 90.14C199.459 90.5667 199.253 91.1067 199.133 91.76L199.033 92.34C198.939 92.86 198.953 93.3267 199.073 93.74C199.206 94.14 199.439 94.46 199.773 94.7C200.106 94.9267 200.519 95.04 201.013 95.04C201.519 95.04 201.953 94.9333 202.313 94.72C202.673 94.5067 202.966 94.2333 203.193 93.9H205.953C205.646 94.5267 205.226 95.0933 204.693 95.6C204.173 96.1067 203.566 96.5067 202.873 96.8C202.193 97.0933 201.453 97.24 200.653 97.24ZM212.763 97.24C211.843 97.24 211.043 97.0467 210.363 96.66C209.696 96.2733 209.19 95.74 208.843 95.06C208.51 94.38 208.363 93.5933 208.403 92.7C208.443 91.8467 208.623 91.06 208.943 90.34C209.276 89.6067 209.723 88.9667 210.283 88.42C210.843 87.8733 211.49 87.4467 212.223 87.14C212.956 86.8333 213.75 86.68 214.603 86.68C215.896 86.68 216.93 87.0267 217.703 87.72C218.476 88.4133 218.863 89.3733 218.863 90.6H216.023C216.01 90.0933 215.83 89.7 215.483 89.42C215.15 89.14 214.723 89 214.203 89C213.656 89 213.156 89.1533 212.703 89.46C212.263 89.7533 211.91 90.16 211.643 90.68C211.376 91.2 211.223 91.7933 211.183 92.46C211.17 92.8467 211.203 93.1933 211.283 93.5C211.363 93.8067 211.49 94.0667 211.663 94.28C211.836 94.4933 212.043 94.66 212.283 94.78C212.536 94.8867 212.823 94.94 213.143 94.94C213.503 94.94 213.836 94.88 214.143 94.76C214.463 94.6267 214.743 94.44 214.983 94.2C215.236 93.96 215.423 93.6733 215.543 93.34H218.403C218.11 94.1133 217.683 94.7933 217.123 95.38C216.576 95.9667 215.93 96.4267 215.183 96.76C214.436 97.08 213.63 97.24 212.763 97.24ZM224.61 97C223.824 97 223.184 96.8733 222.69 96.62C222.21 96.3667 221.884 95.98 221.71 95.46C221.537 94.9267 221.524 94.26 221.67 93.46L222.43 89.18H220.75L221.15 86.92H222.83L223.61 84.18H226.03L225.53 86.92H228.19L227.79 89.18H225.13L224.37 93.48C224.29 93.9467 224.344 94.2667 224.53 94.44C224.717 94.6133 225.024 94.7 225.45 94.7H226.85L226.43 97H224.61ZM232.844 97.24C231.911 97.24 231.124 97.0867 230.484 96.78C229.844 96.4733 229.371 96.0533 229.064 95.52C228.771 94.9867 228.657 94.3867 228.724 93.72H231.404C231.391 94 231.451 94.2533 231.584 94.48C231.717 94.7067 231.917 94.8867 232.184 95.02C232.451 95.14 232.784 95.2 233.184 95.2C233.544 95.2 233.851 95.1467 234.104 95.04C234.357 94.9333 234.551 94.7867 234.684 94.6C234.831 94.4133 234.911 94.2067 234.924 93.98C234.937 93.74 234.871 93.5533 234.724 93.42C234.591 93.2733 234.391 93.1533 234.124 93.06C233.857 92.9667 233.544 92.8867 233.184 92.82C232.717 92.7267 232.271 92.6067 231.844 92.46C231.417 92.3 231.044 92.1133 230.724 91.9C230.404 91.6867 230.151 91.4267 229.964 91.12C229.791 90.8 229.711 90.42 229.724 89.98C229.764 89.34 229.977 88.7733 230.364 88.28C230.764 87.7867 231.297 87.4 231.964 87.12C232.644 86.8267 233.424 86.68 234.304 86.68C235.517 86.68 236.457 86.96 237.124 87.52C237.804 88.08 238.131 88.84 238.104 89.8H235.524C235.497 89.4667 235.344 89.2067 235.064 89.02C234.797 88.8333 234.437 88.74 233.984 88.74C233.517 88.74 233.137 88.84 232.844 89.04C232.551 89.2267 232.397 89.46 232.384 89.74C232.384 89.9267 232.451 90.0933 232.584 90.24C232.731 90.3733 232.944 90.4933 233.224 90.6C233.504 90.6933 233.851 90.78 234.264 90.86C234.797 90.98 235.277 91.1133 235.704 91.26C236.131 91.4067 236.497 91.5867 236.804 91.8C237.111 92 237.337 92.2533 237.484 92.56C237.631 92.8667 237.691 93.2467 237.664 93.7C237.637 94.42 237.411 95.0467 236.984 95.58C236.557 96.1133 235.984 96.5267 235.264 96.82C234.557 97.1 233.751 97.24 232.844 97.24Z" fill="#FAFAFA"/>
<defs>
<linearGradient id="paint0_linear_426_6818" x1="0" y1="90" x2="361" y2="90" gradientUnits="userSpaceOnUse">
<stop stop-color="#A855F7"/>
<stop offset="1" stop-color="#D946EF"/>
</linearGradient>
</defs>
</svg>
